<?xml version="1.0" encoding="UTF-8"?>
<svg xmlns="http://www.w3.org/2000/svg" xmlns:xlink="http://www.w3.org/1999/xlink" viewBox="0 0 4378.6200502517 3147.6171875">
  <defs>
    <style>
      .cls-1 {
        stroke: #f68720;
        stroke-width: 16px;
      }

      .cls-1, .cls-2, .cls-3 {
        fill: none;
        stroke-miterlimit: 10;
      }

      .cls-4 {
        fill: url(#linear-gradient-2);
      }

      .cls-5 {
        fill: #f1f2f2;
      }

      .cls-6, .cls-7 {
        fill: #231f20;
      }

      .cls-8 {
        fill: #f7941d;
      }

      .cls-9 {
        fill: #808285;
      }

      .cls-10 {
        letter-spacing: -.07421875em;
      }

      .cls-11 {
        fill: #e7ebf6;
      }

      .cls-12 {
        fill: #939598;
      }

      .cls-2 {
        stroke-width: .25px;
      }

      .cls-2, .cls-3 {
        stroke: #231f20;
      }

      .cls-13 {
        fill: #ceb08d;
      }

      .cls-14 {
        fill: #d1d3d4;
      }

      .cls-15 {
        fill: #a7a9ac;
      }

      .cls-16 {
        fill: #e6e7e8;
      }

      .cls-3 {
        stroke-width: 6px;
      }

      .cls-17 {
        fill: #c5d3dd;
      }

      .cls-18 {
        fill: #9edcf1;
      }

      .cls-19 {
        fill: #f68720;
      }

      .cls-20 {
        fill: #fbae52;
      }

      .cls-21 {
        fill: #58595b;
      }

      .cls-22 {
        fill: #ce9548;
      }

      .cls-7 {
        font-family: ArialMT, Arial;
        font-size: 100px;
      }

      .cls-23 {
        fill: #fdc484;
      }

      .cls-24 {
        fill: url(#linear-gradient);
      }

      .cls-25 {
        fill: #cfd4d8;
      }
    </style>
    <linearGradient id="linear-gradient" x1="889.1219140625" y1="1022.78515625" x2="889.1219140625" y2="766.09515625" gradientUnits="userSpaceOnUse">
      <stop offset=".0000001965" stop-color="#9edcf1" stop-opacity=".5"/>
      <stop offset=".0220093018" stop-color="#a6def1" stop-opacity=".5"/>
      <stop offset=".1327356706" stop-color="#c8e7f1" stop-opacity=".5"/>
      <stop offset=".2700512334" stop-color="#dfedf1" stop-opacity=".5"/>
      <stop offset=".4633705226" stop-color="#edf1f1" stop-opacity=".5"/>
      <stop offset="1" stop-color="#f1f2f2" stop-opacity=".5"/>
    </linearGradient>
    <linearGradient id="linear-gradient-2" x1="625.8019140625" y1="1022.54015625" x2="625.8019140625" y2="855.15015625" gradientUnits="userSpaceOnUse">
      <stop offset=".0000001006" stop-color="#9edcf1" stop-opacity=".5"/>
      <stop offset=".0220092679" stop-color="#a6def1" stop-opacity=".5"/>
      <stop offset=".1327354792" stop-color="#c8e7f1" stop-opacity=".5"/>
      <stop offset=".2700508825" stop-color="#dfedf1" stop-opacity=".5"/>
      <stop offset=".4633700216" stop-color="#edf1f1" stop-opacity=".5"/>
      <stop offset="1" stop-color="#f1f2f2" stop-opacity=".5"/>
    </linearGradient>
  </defs>
  <g id="Shadows">
    <g>
      <polygon class="cls-12" points="4378.3669140625 1061.11515625 3006.1169140625 1061.11515625 2990.9869140625 1048.14515625 4342.6669140625 1048.14515625 4342.6669140625 1030.49515625 4378.3669140625 1061.11515625"/>
      <polygon class="cls-12" points="2891.3869140625 2641.63515625 1501.3769140625 2641.63515625 1486.2469140625 2628.66515625 2850.7569140625 2628.66515625 2850.7569140625 2606.78515625 2891.3869140625 2641.63515625"/>
      <polygon class="cls-12" points="1947.9569140625 873.85515625 1579.5769140625 873.85515625 1564.4469140625 860.87515625 1912.3469140625 860.87515625 1912.3469140625 843.29515625 1947.9569140625 873.85515625"/>
      <path class="cls-12" d="M1105.3169140625,1421.66515625c17.29-.17,15.91,16.41,15.91,16.41,0,52.59-146.19,95.23-326.52,95.23-151.78,0-279.37-30.2-315.97-71.13,49.58,34.18,165.61,58.15,300.84,58.15,180.33,0,326.52-42.64,326.52-95.23l-.78-3.43Z"/>
    </g>
  </g>
  <g id="Flatcolors">
    <g>
      <g>
        <path class="cls-15" d="M4342.6669140625,548.94515625v499.2h-1351.68v-499.2h1351.68ZM4224.3969140625,918.43515625v-251.14h-619.67v251.14h619.67ZM3396.8769140625,795.94515625c0-71.05-57.6-128.65-128.66-128.65-71.05,0-128.65,57.6-128.65,128.65,0,71.06,57.6,128.66,128.65,128.66,71.06,0,128.66-57.6,128.66-128.66Z"/>
        <polygon class="cls-15" points="4342.6669140625 548.94515625 2990.9869140625 548.94515625 2795.4469140625 381.29515625 4147.1269140625 381.29515625 4342.6669140625 548.94515625"/>
        <rect class="cls-5" x="3604.7269140625" y="667.29515625" width="619.67" height="251.14"/>
        <path class="cls-14" d="M3268.2169140625,667.29515625c71.06,0,128.66,57.6,128.66,128.65,0,71.06-57.6,128.66-128.66,128.66-71.05,0-128.65-57.6-128.65-128.66,0-71.05,57.6-128.65,128.65-128.65ZM3277.4869140625,795.94515625v-127.33h-18.54v127.33h18.54Z"/>
        <rect class="cls-9" x="3258.9469140625" y="668.61515625" width="18.54" height="127.33"/>
        <polygon class="cls-15" points="2990.9869140625 548.94515625 2990.9869140625 1048.14515625 2795.4469140625 880.48515625 2795.4469140625 381.29515625 2990.9869140625 548.94515625"/>
        <ellipse class="cls-25" cx="2923.0469140625" cy="1500.25515625" rx="7.48" ry="25.64"/>
        <path class="cls-25" d="M2346.1669140625,1474.61515625h576.88c-4.13,0-7.48,11.48-7.48,25.64s3.35,25.64,7.48,25.64h-517.6v32.33h-59.28v-83.61Z"/>
        <polygon class="cls-5" points="2850.7569140625 1662.03515625 2850.7569140625 2628.66515625 2729.9769140625 2525.10515625 2729.7669140625 2524.85515625 2729.7669140625 1662.03515625 2850.7569140625 1662.03515625"/>
        <polygon class="cls-5" points="2850.7569140625 1662.03515625 2729.7669140625 1662.03515625 2729.7669140625 1558.48515625 2729.9769140625 1558.48515625 2850.7569140625 1662.03515625"/>
        <polygon class="cls-5" points="2850.7569140625 2628.66515625 1486.2469140625 2628.66515625 1486.2469140625 2524.85515625 1933.7869140625 2524.85515625 1971.4969140625 2557.18515625 1995.7869140625 2557.18515625 1995.7869140625 2524.85515625 2729.7669140625 2524.85515625 2729.9769140625 2525.10515625 2850.7569140625 2628.66515625"/>
        <path class="cls-5" d="M2639.2769140625,2446.72515625c16.09,0,29.13-69.29,29.13-154.76s-13.04-154.76-29.13-154.76h-34.43c-12.12,0-22.51,39.31-26.9,95.24l-177.46,28.64,74.77-279.17-69.81-59.79v-260.09h324.32v862.82h-733.98v-198.05l164.02-26.35,5.02,103.23-.15.45,79.74,68.37h99.45l41.1-153.45,192.97,32.27c4.38,56.01,14.78,95.4,26.91,95.4h34.43Z"/>
        <polygon class="cls-5" points="2729.7669140625 1558.48515625 2729.7669140625 1662.03515625 2405.4469140625 1662.03515625 2405.4469140625 1602.98515625 2405.4469140625 1558.22515625 2729.7669140625 1558.22515625 2729.7669140625 1558.48515625"/>
        <path class="cls-9" d="M2639.2769140625,2137.20515625c16.09,0,29.13,69.29,29.13,154.76s-13.04,154.76-29.13,154.76h-34.43c16.09,0,29.13-69.29,29.13-154.76s-13.04-154.76-29.13-154.76h34.43Z"/>
        <path class="cls-9" d="M2604.8469140625,2137.20515625c16.09,0,29.13,69.29,29.13,154.76s-13.04,154.76-29.13,154.76c-12.13,0-22.53-39.39-26.91-95.4l26.16,4.38c.25.08.5.12.75.12,6.64,0,12.02-28.59,12.02-63.86s-5.38-63.86-12.02-63.86c-.24,0-.48.04-.72.12l-26.18,4.22c4.39-55.93,14.78-95.24,26.9-95.24Z"/>
        <path class="cls-20" d="M2604.8469140625,2228.10515625c6.64,0,12.02,28.59,12.02,63.86s-5.38,63.86-12.02,63.86l-.75-.12c-6.29-2.05-11.27-29.8-11.27-63.74,0-33.99,5-61.78,11.3-63.74l.72-.12Z"/>
        <path class="cls-20" d="M2577.9469140625,2232.44515625l26.18-4.22c-6.3,1.96-11.3,29.75-11.3,63.74,0,33.94,4.98,61.69,11.27,63.74l-26.16-4.38c-1.43-18.28-2.22-38.33-2.22-59.36,0-21.09.79-41.2,2.23-59.52Z"/>
        <path class="cls-20" d="M2400.4869140625,2261.08515625l177.46-28.64c-1.44,18.32-2.23,38.43-2.23,59.52,0,21.03.79,41.08,2.22,59.36l-192.97-32.27,15.52-57.97Z"/>
        <polygon class="cls-14" points="2384.9669140625 2319.05515625 2343.8669140625 2472.50515625 2244.4169140625 2472.50515625 2375.7669140625 1982.05515625 2375.8069140625 1981.91515625 2475.2569140625 1981.91515625 2400.4869140625 2261.08515625 2384.9669140625 2319.05515625"/>
        <path class="cls-14" d="M2475.2569140625,1981.91515625h-99.45l-.04.14-.09-.03-241.43-207h57.67v29.68c-.04.23-.06.46-.06.7,0,6.35,13.13,11.5,29.34,11.5s29.35-5.15,29.35-11.5h.65v-15.38l94.97,81.33v67.25h.29c0,6.36,13.14,11.51,29.35,11.51s29.34-5.15,29.34-11.51h.3v-16.48l69.81,59.79ZM2324.2069140625,1867.02515625c0-6.35-13.14-11.5-29.35-11.5-16.2,0-29.34,5.15-29.34,11.5s13.14,11.5,29.34,11.5c16.21,0,29.35-5.15,29.35-11.5Z"/>
        <path class="cls-25" d="M2405.4469140625,1922.12515625v16.48h-.3c0-6.35-13.13-11.5-29.34-11.5s-29.35,5.15-29.35,11.5h-.29v-67.25l59.28,50.77Z"/>
        <polygon class="cls-25" points="2405.4469140625 1662.03515625 2405.4469140625 1922.12515625 2346.1669140625 1871.35515625 2346.1669140625 1662.03515625 2405.4469140625 1662.03515625"/>
        <path class="cls-25" d="M2405.4469140625,1602.98515625v59.05h-59.28v-59.05h.29c0,6.35,13.14,11.5,29.35,11.5s29.34-5.15,29.34-11.5h.3Z"/>
        <path class="cls-25" d="M2405.4469140625,1558.22515625v44.76h-.3c0-6.36-13.13-11.51-29.34-11.51s-29.35,5.15-29.35,11.51h-.29v-44.76h59.28Z"/>
        <path class="cls-25" d="M2375.8069140625,1591.47515625c16.21,0,29.34,5.15,29.34,11.51,0,6.35-13.13,11.5-29.34,11.5s-29.35-5.15-29.35-11.5c0-6.36,13.14-11.51,29.35-11.51Z"/>
        <path class="cls-25" d="M2375.8069140625,1927.10515625c16.21,0,29.34,5.15,29.34,11.5,0,6.36-13.13,11.51-29.34,11.51s-29.35-5.15-29.35-11.51c0-6.35,13.14-11.5,29.35-11.5Z"/>
        <polygon class="cls-14" points="2375.7669140625 1982.05515625 2244.4169140625 2472.50515625 2164.6769140625 2404.13515625 2164.8269140625 2403.68515625 2159.8069140625 2300.45515625 2194.8569140625 2294.82515625 2194.8569140625 2337.21515625 2228.6569140625 2366.19515625 2235.4569140625 2366.19515625 2235.4569140625 2246.72515625 2201.6469140625 2217.74515625 2194.8569140625 2217.74515625 2194.8569140625 2289.09515625 2158.9669140625 2283.29515625 2134.2469140625 1775.02515625 2375.6769140625 1982.02515625 2375.7669140625 1982.05515625"/>
        <polygon class="cls-5" points="2346.1669140625 1662.03515625 2346.1669140625 1871.35515625 2251.1969140625 1790.02515625 2251.1969140625 1662.03515625 2346.1669140625 1662.03515625"/>
        <polygon class="cls-5" points="2346.1669140625 1602.98515625 2346.1669140625 1662.03515625 2251.1969140625 1662.03515625 2251.1969140625 1602.98515625 2251.1969140625 1558.22515625 2346.1669140625 1558.22515625 2346.1669140625 1602.98515625"/>
        <path class="cls-14" d="M2294.8569140625,1855.52515625c16.21,0,29.35,5.15,29.35,11.5s-13.14,11.5-29.35,11.5c-16.2,0-29.34-5.15-29.34-11.5s13.14-11.5,29.34-11.5Z"/>
        <path class="cls-17" d="M2251.1969140625,1790.02515625v15.38h-.65c0-6.35-13.14-11.5-29.35-11.5-15.61,0-28.36,4.78-29.28,10.8v-29.68h41.77l17.51,15Z"/>
        <polygon class="cls-17" points="2251.1969140625 1662.03515625 2251.1969140625 1790.02515625 2233.6869140625 1775.02515625 2191.9169140625 1775.02515625 2191.9169140625 1662.03515625 2251.1969140625 1662.03515625"/>
        <path class="cls-17" d="M2251.1969140625,1602.98515625v59.05h-59.28v-58.35c.92,6.02,13.67,10.8,29.28,10.8,16.21,0,29.35-5.15,29.35-11.5h.65Z"/>
        <path class="cls-17" d="M2251.1969140625,1558.22515625v44.76h-.65c0-6.36-13.14-11.51-29.35-11.51-15.61,0-28.36,4.78-29.28,10.81v-44.06h59.28Z"/>
        <path class="cls-17" d="M2251.1969140625,351.21515625v1207.01h-59.28V402.49515625h-369.52v175.03c0-4.13-11.48-7.48-25.64-7.48s-25.64,3.35-25.64,7.48v-226.31h480.08Z"/>
        <path class="cls-17" d="M2221.1969140625,1591.47515625c16.21,0,29.35,5.15,29.35,11.51,0,6.35-13.14,11.5-29.35,11.5-15.61,0-28.36-4.78-29.28-10.8v-1.4c.92-6.03,13.67-10.81,29.28-10.81Z"/>
        <path class="cls-17" d="M2191.9169140625,1804.70515625c.92-6.02,13.67-10.8,29.28-10.8,16.21,0,29.35,5.15,29.35,11.5s-13.14,11.5-29.35,11.5-29.34-5.15-29.34-11.5c0-.24.02-.47.06-.7Z"/>
        <rect class="cls-19" x="2228.6569140625" y="2246.72515625" width="6.8" height="119.47"/>
        <polygon class="cls-19" points="2235.4569140625 2246.72515625 2228.6569140625 2246.72515625 2194.8569140625 2217.74515625 2201.6469140625 2217.74515625 2235.4569140625 2246.72515625"/>
        <path class="cls-19" d="M2228.6569140625,2246.72515625v119.47l-33.8-28.98v-42.39l14.33-2.31c.06,7.28,1.18,13.08,2.57,13.08,1.42,0,2.56-6.1,2.56-13.63,0-7.52-1.14-13.62-2.56-13.62-1.38,0-2.51,5.8-2.57,13.06l-14.33-2.31v-71.35l33.8,28.98Z"/>
        <path class="cls-5" d="M2214.3169140625,2291.96515625h-1.68l-3.45-.56c.06-7.26,1.19-13.06,2.57-13.06,1.42,0,2.56,6.1,2.56,13.62Z"/>
        <path class="cls-5" d="M2212.6369140625,2291.96515625h1.68c0,7.53-1.14,13.63-2.56,13.63-1.39,0-2.51-5.8-2.57-13.08l3.45-.55Z"/>
        <path class="cls-20" d="M2212.6369140625,2291.96515625l-3.45.55v-1.11l3.45.56Z"/>
        <path class="cls-20" d="M2209.1869140625,2291.40515625v1.11l-14.33,2.31v-5.73l14.33,2.31Z"/>
        <polygon class="cls-20" points="2194.8569140625 2289.09515625 2194.8569140625 2294.82515625 2159.8069140625 2300.45515625 2158.9669140625 2283.29515625 2194.8569140625 2289.09515625"/>
        <path class="cls-5" d="M1760.1669140625,2137.20515625h-34.43c-10.79,0-20.2,31.15-25.24,77.44h-214.25v-552.61h705.67v112.99h-57.67l24.72,508.27-163.18-26.38v-126.61l-120.78-103.56h-24.29v187.9h-65.31c-5.04-46.29-14.45-77.44-25.24-77.44Z"/>
        <path class="cls-5" d="M2191.9169140625,1603.68515625v58.35h-705.67l-120.78-103.55h-.22v-.26h826.67v44.06c-.04.23-.06.46-.06.7s.02.47.06.7Z"/>
        <polygon class="cls-20" points="2158.9669140625 2283.29515625 2159.8069140625 2300.45515625 1995.7869140625 2326.80515625 1995.7869140625 2256.91515625 2158.9669140625 2283.29515625"/>
        <rect class="cls-15" x="1971.4969140625" y="2524.85515625" width="24.29" height="32.33"/>
        <polygon class="cls-15" points="1995.7869140625 2256.91515625 1995.7869140625 2326.80515625 1995.7869140625 2524.85515625 1971.4969140625 2524.85515625 1971.4969140625 2130.30515625 1995.7869140625 2130.30515625 1995.7869140625 2256.91515625"/>
        <polygon class="cls-15" points="1995.7869140625 2130.30515625 1971.4969140625 2130.30515625 1850.7169140625 2026.74515625 1875.0069140625 2026.74515625 1995.7869140625 2130.30515625"/>
        <polygon class="cls-15" points="1971.4969140625 2524.85515625 1971.4969140625 2557.18515625 1933.7869140625 2524.85515625 1971.4969140625 2524.85515625"/>
        <path class="cls-15" d="M1971.4969140625,2130.30515625v394.55h-37.71l-83.07-71.22v-84.35h60.39c8.04,0,14.56-34.61,14.56-77.32,0-42.7-6.52-77.32-14.56-77.32h-60.39v-187.9l120.78,103.56Z"/>
        <path class="cls-5" d="M1760.1669140625,2446.72515625c10.79,0,20.2-31.15,25.24-77.44h65.31v84.35l83.07,71.22h-447.54v-155.57h214.25c5.04,46.29,14.45,77.44,25.24,77.44h34.43Z"/>
        <path class="cls-23" d="M1911.1069140625,2214.64515625c8.04,0,14.56,34.62,14.56,77.32,0,42.71-6.52,77.32-14.56,77.32-4.35,0-8.25-10.11-10.91-26.15l10.91-2.48c5.06,0,9.17-21.8,9.17-48.69s-4.11-48.68-9.17-48.68l-10.91-2.48c2.66-16.04,6.56-26.16,10.91-26.16Z"/>
        <path class="cls-20" d="M1911.1069140625,2243.28515625c5.06,0,9.17,21.79,9.17,48.68s-4.11,48.69-9.17,48.69-9.16-21.8-9.16-48.69,4.1-48.68,9.16-48.68Z"/>
        <polygon class="cls-8" points="1912.3469140625 683.83515625 1912.3469140625 860.87515625 1564.4469140625 860.87515625 1564.4469140625 683.83515625 1912.2769140625 683.83515625 1912.3469140625 683.83515625"/>
        <path class="cls-8" d="M1912.2769140625,683.83515625h-347.83l-68.53-58.75h70.48v22.62c-.01.04-.01.09-.01.13,0,4.13,11.48,7.48,25.64,7.48s25.64-3.35,25.64-7.48v-22.75h153.45v22.75c0,4.13,11.48,7.48,25.64,7.48s25.64-3.35,25.64-7.48v-22.75h21.36l68.52,58.75Z"/>
        <path class="cls-23" d="M1850.7169140625,2214.64515625h60.39c-4.35,0-8.25,10.12-10.91,26.16l-49.48-11.28v-14.88Z"/>
        <path class="cls-20" d="M1900.1969140625,2240.80515625l10.91,2.48c-5.06,0-9.16,21.79-9.16,48.68s4.1,48.69,9.16,48.69l-10.91,2.48c-2.26-13.64-3.64-31.54-3.64-51.17,0-19.62,1.38-37.53,3.64-51.16Z"/>
        <path class="cls-23" d="M1911.1069140625,2369.28515625h-60.39v-14.88l49.48-11.27c2.66,16.04,6.56,26.15,10.91,26.15Z"/>
        <path class="cls-20" d="M1850.7169140625,2229.52515625l49.48,11.28c-2.26,13.63-3.64,31.54-3.64,51.16,0,19.63,1.38,37.53,3.64,51.17l-49.48,11.27v-124.88Z"/>
        <polygon class="cls-23" points="1850.7169140625 2354.40515625 1850.7169140625 2369.28515625 1785.4069140625 2369.28515625 1850.7169140625 2354.40515625"/>
        <path class="cls-20" d="M1850.7169140625,2229.52515625v124.88l-65.31,14.88c2.47-22.75,3.89-49.15,3.89-77.32s-1.42-54.57-3.89-77.32l65.31,14.88Z"/>
        <polygon class="cls-23" points="1850.7169140625 2214.64515625 1850.7169140625 2229.52515625 1785.4069140625 2214.64515625 1850.7169140625 2214.64515625"/>
        <path class="cls-8" d="M1822.3969140625,625.08515625v22.75c0-4.13-11.48-7.48-25.64-7.48s-25.64,3.35-25.64,7.48v-70.31c0,4.13,11.48,7.48,25.64,7.48s25.64-3.35,25.64-7.48v47.56Z"/>
        <ellipse class="cls-8" cx="1796.7569140625" cy="577.52515625" rx="25.64" ry="7.48"/>
        <ellipse class="cls-8" cx="1796.7569140625" cy="647.83515625" rx="25.64" ry="7.48"/>
        <path class="cls-22" d="M1785.4069140625,2214.64515625c2.47,22.75,3.89,49.15,3.89,77.32s-1.42,54.57-3.89,77.32c-5.04,46.29-14.45,77.44-25.24,77.44h-34.43c16.09,0,29.13-69.29,29.13-154.76s-13.04-154.76-29.13-154.76h34.43c10.79,0,20.2,31.15,25.24,77.44Z"/>
        <path class="cls-22" d="M1754.8669140625,2291.96515625h-2.62c0-77.76-11.87-140.79-26.51-140.79-9.26,0-17.41,25.24-22.14,63.47h-3.1c5.04-46.29,14.45-77.44,25.24-77.44,16.09,0,29.13,69.29,29.13,154.76Z"/>
        <path class="cls-22" d="M1752.2469140625,2291.96515625h2.62c0,85.47-13.04,154.76-29.13,154.76-10.79,0-20.2-31.15-25.24-77.44h3.1c4.73,38.24,12.88,63.48,22.14,63.48,14.64,0,26.51-63.04,26.51-140.8Z"/>
        <path class="cls-22" d="M1749.2469140625,2291.96515625h-2.82c0-60.69-9.26-109.89-20.69-109.89-5.75,0-10.94,12.46-14.69,32.57h-3.77c4.3-28.97,10.97-47.57,18.46-47.57,12.99,0,23.51,55.92,23.51,124.89Z"/>
        <path class="cls-22" d="M1746.4269140625,2291.96515625h2.82c0,68.98-10.52,124.9-23.51,124.9-7.49,0-14.16-18.6-18.46-47.58h3.77c3.75,20.11,8.94,32.57,14.69,32.57,11.11,0,20.17-46.5,20.66-104.85.02-1.67.03-3.35.03-5.04Z"/>
        <path class="cls-13" d="M1746.4269140625,2291.96515625c0,1.69-.01,3.37-.03,5.04l-2.33-.02c.01-1.66.02-3.34.02-5.02,0-53.83-8.21-97.47-18.35-97.47-4.2,0-8.07,7.51-11.16,20.15h-3.53c3.75-20.11,8.94-32.57,14.69-32.57,11.43,0,20.69,49.2,20.69,109.89Z"/>
        <path class="cls-13" d="M1744.0669140625,2296.98515625l2.33.02c-.49,58.35-9.55,104.85-20.66,104.85-5.75,0-10.94-12.46-14.69-32.57h3.52c3.09,12.64,6.97,20.16,11.17,20.16,9.82,0,17.83-40.96,18.33-92.46Z"/>
        <path class="cls-13" d="M1725.7369140625,2151.17515625c14.64,0,26.51,63.03,26.51,140.79s-11.87,140.8-26.51,140.8c-9.26,0-17.41-25.24-22.14-63.48h3.68c4.3,28.98,10.97,47.58,18.46,47.58,12.99,0,23.51-55.92,23.51-124.9,0-68.97-10.52-124.89-23.51-124.89-7.49,0-14.16,18.6-18.46,47.57h-3.68c4.73-38.23,12.88-63.47,22.14-63.47Z"/>
        <path class="cls-22" d="M1744.0869140625,2291.96515625c0,1.68-.01,3.36-.02,5.02-.5,51.5-8.51,92.46-18.33,92.46-4.2,0-8.08-7.52-11.17-20.16h6.94c1.34,2.07,2.76,3.18,4.23,3.18s2.89-1.11,4.23-3.18c6.31-9.72,10.92-40.66,10.92-77.32s-4.61-67.61-10.92-77.32h-.01c-1.34-2.06-2.76-3.17-4.22-3.17s-2.88,1.11-4.22,3.17h-6.94c3.09-12.64,6.96-20.15,11.16-20.15,10.14,0,18.35,43.64,18.35,97.47Z"/>
        <path class="cls-20" d="M1740.8869140625,2291.96515625h-1.71c0-39.43-6.01-71.4-13.44-71.4-7.42,0-13.44,31.97-13.44,71.4h-1.71c0-36.66,4.62-67.61,10.93-77.32h8.45c6.31,9.71,10.92,40.66,10.92,77.32Z"/>
        <path class="cls-20" d="M1739.1769140625,2291.96515625h1.71c0,36.66-4.61,67.6-10.92,77.32h-8.46c-6.3-9.72-10.92-40.66-10.92-77.32h1.71c0,.98,0,1.96.02,2.94.28,38.08,6.19,68.46,13.42,68.46,7.24,0,13.14-30.38,13.42-68.46.02-.98.02-1.96.02-2.94Z"/>
        <path class="cls-20" d="M1739.1769140625,2291.96515625c0,.98,0,1.96-.02,2.94l-2.72-.01c.01-.97.01-1.95.01-2.93,0-31.42-4.79-56.9-10.71-56.9-5.91,0-10.71,25.48-10.71,56.9,0,.98,0,1.96.01,2.93l-2.72.01c-.02-.98-.02-1.96-.02-2.94,0-39.43,6.02-71.4,13.44-71.4,7.43,0,13.44,31.97,13.44,71.4Z"/>
        <path class="cls-20" d="M1736.4369140625,2294.89515625l2.72.01c-.28,38.08-6.18,68.46-13.42,68.46-7.23,0-13.14-30.38-13.42-68.46l2.72-.01c.29,30.07,4.97,53.98,10.7,53.98,5.74,0,10.41-23.91,10.7-53.98Z"/>
        <path class="cls-20" d="M1736.4469140625,2291.96515625c0,.98,0,1.96-.01,2.93-.29,30.07-4.96,53.98-10.7,53.98-5.73,0-10.41-23.91-10.7-53.98-.01-.97-.01-1.95-.01-2.93,0-31.42,4.8-56.9,10.71-56.9,5.92,0,10.71,25.48,10.71,56.9ZM1735.2369140625,2291.96515625c0-27.87-4.25-50.47-9.5-50.47-5.24,0-9.5,22.6-9.5,50.47,0,27.88,4.26,50.48,9.5,50.48,5.25,0,9.5-22.6,9.5-50.48Z"/>
        <path class="cls-20" d="M1725.7369140625,2241.49515625c5.25,0,9.5,22.6,9.5,50.47,0,27.88-4.25,50.48-9.5,50.48-5.24,0-9.5-22.6-9.5-50.48,0-27.87,4.26-50.47,9.5-50.47Z"/>
        <path class="cls-13" d="M1721.5069140625,2369.28515625h8.46c-1.34,2.07-2.76,3.18-4.23,3.18s-2.89-1.11-4.23-3.18Z"/>
        <path class="cls-13" d="M1729.9569140625,2214.64515625h-8.44c1.34-2.06,2.76-3.17,4.22-3.17s2.88,1.11,4.22,3.17Z"/>
        <path class="cls-20" d="M1714.5769140625,2214.64515625h6.94c-6.31,9.71-10.93,40.66-10.93,77.32s4.62,67.6,10.92,77.32h-6.94c-4.37-17.82-7.18-45.82-7.18-77.32s2.81-59.51,7.19-77.32Z"/>
        <path class="cls-20" d="M1711.0469140625,2214.64515625h3.53c-4.38,17.81-7.19,45.82-7.19,77.32s2.81,59.5,7.18,77.32h-3.52c-3.7-19.85-5.99-47.17-5.99-77.32s2.29-57.47,5.99-77.32Z"/>
        <path class="cls-20" d="M1707.2769140625,2214.64515625h3.77c-3.7,19.85-5.99,47.17-5.99,77.32h-2.83c0-29.19,1.89-56.05,5.05-77.32Z"/>
        <path class="cls-20" d="M1711.0469140625,2369.28515625h-3.77c-3.17-21.27-5.05-48.13-5.05-77.32h2.83c0,30.15,2.29,57.47,5.99,77.32Z"/>
        <path class="cls-20" d="M1703.5969140625,2214.64515625h3.68c-3.16,21.27-5.05,48.13-5.05,77.32h-2.99c0-28.56,1.6-55.13,4.36-77.32Z"/>
        <path class="cls-20" d="M1707.2769140625,2369.28515625h-3.68c-2.76-22.19-4.36-48.76-4.36-77.32h2.99c0,29.19,1.88,56.05,5.05,77.32Z"/>
        <path class="cls-20" d="M1700.4969140625,2214.64515625h3.1c-2.76,22.19-4.36,48.76-4.36,77.32s1.6,55.13,4.36,77.32h-3.1c-2.47-22.75-3.89-49.15-3.89-77.32s1.42-54.57,3.89-77.32Z"/>
        <path class="cls-20" d="M1632.9469140625,2214.64515625h67.55c-2.47,22.75-3.89,49.15-3.89,77.32s1.42,54.57,3.89,77.32h-67.55c8.04,0,14.55-34.61,14.55-77.32,0-42.7-6.51-77.32-14.55-77.32Z"/>
        <path class="cls-19" d="M1632.9469140625,2214.64515625c8.04,0,14.55,34.62,14.55,77.32,0,42.71-6.51,77.32-14.55,77.32h-146.7v-154.64h146.7Z"/>
        <path class="cls-8" d="M1617.6669140625,625.08515625v22.75c0-4.13-11.48-7.48-25.64-7.48-14.01,0-25.4,3.28-25.63,7.35v-70.05c.24,4.07,11.62,7.35,25.63,7.35,14.16,0,25.64-3.35,25.64-7.48v47.56Z"/>
        <path class="cls-17" d="M1617.6669140625,351.21515625v226.31c0-4.13-11.48-7.48-25.64-7.48-14.01,0-25.39,3.28-25.63,7.35v-174.9h-712.25v205.84c-14.3-3.71-31.87-6.37-51.28-7.55v-249.57h814.8Z"/>
        <path class="cls-8" d="M1592.0269140625,570.04515625c14.16,0,25.64,3.35,25.64,7.48s-11.48,7.48-25.64,7.48c-14.01,0-25.39-3.28-25.63-7.35v-.26c.24-4.07,11.62-7.35,25.63-7.35Z"/>
        <path class="cls-8" d="M1566.3969140625,647.70515625c.23-4.07,11.62-7.35,25.63-7.35,14.16,0,25.64,3.35,25.64,7.48s-11.48,7.48-25.64,7.48-25.64-3.35-25.64-7.48c0-.04,0-.09.01-.13Z"/>
        <polygon class="cls-8" points="1564.4469140625 683.83515625 1564.4469140625 860.87515625 1495.9169140625 802.12515625 1495.9169140625 625.08515625 1564.4469140625 683.83515625"/>
        <polygon class="cls-5" points="1486.2469140625 2524.85515625 1486.2469140625 2628.66515625 1365.4669140625 2525.10515625 1365.4669140625 2524.85515625 1486.2469140625 2524.85515625"/>
        <polygon class="cls-5" points="1486.2469140625 2369.28515625 1486.2469140625 2524.85515625 1365.4669140625 2524.85515625 1365.2469140625 2524.85515625 1365.2469140625 2369.28515625 1425.8569140625 2369.28515625 1486.2469140625 2369.28515625"/>
        <path class="cls-19" d="M1486.2469140625,2214.64515625v154.64h-60.39c8.03,0,14.55-34.61,14.55-77.32,0-42.7-6.52-77.32-14.55-77.32h60.39Z"/>
        <polygon class="cls-5" points="1486.2469140625 1662.03515625 1486.2469140625 2214.64515625 1425.8569140625 2214.64515625 1365.2469140625 2214.64515625 1365.2469140625 1558.48515625 1365.4669140625 1558.48515625 1486.2469140625 1662.03515625"/>
        <path class="cls-19" d="M1425.8569140625,2214.64515625c8.03,0,14.55,34.62,14.55,77.32,0,42.71-6.52,77.32-14.55,77.32-8.04,0-14.56-34.61-14.56-77.32,0-42.7,6.52-77.32,14.56-77.32Z"/>
        <path class="cls-19" d="M1365.2469140625,2214.64515625h60.61c-8.04,0-14.56,34.62-14.56,77.32,0,42.71,6.52,77.32,14.56,77.32h-60.61v-154.64Z"/>
        <path class="cls-19" d="M1365.2469140625,2214.64515625v154.64h-81.48c8.04,0,14.56-34.61,14.56-77.32,0-42.7-6.52-77.32-14.56-77.32h81.48Z"/>
        <path class="cls-19" d="M1283.7669140625,2214.64515625c8.04,0,14.56,34.62,14.56,77.32,0,42.71-6.52,77.32-14.56,77.32s-14.55-34.61-14.55-77.32c0-42.7,6.51-77.32,14.55-77.32Z"/>
        <path class="cls-18" d="M1017.4669140625,1228.77515625l89.28,196.02-.65.3c0,52.59-146.19,95.23-326.52,95.23-180.34,0-326.52-42.64-326.52-95.23l-.52-.24,89.57-196.67,1.04.47c-1.41,3.06-2.14,6.19-2.14,9.36,0,31.32,70.92,57.82,168.49,66.57v152.03c0,4.13,11.48,7.48,25.64,7.48s25.64-3.35,25.64-7.48v-149.18c6.27.15,12.62.22,19.02.22,131.88,0,238.79-31.18,238.79-69.64,0-3-.65-5.97-1.92-8.87l.8-.37ZM999.4669140625,1335.93515625c0-15.62-12.66-28.28-28.28-28.28-15.61,0-28.27,12.66-28.27,28.28s12.66,28.28,28.27,28.28c15.62,0,28.28-12.66,28.28-28.28ZM963.2869140625,1458.36515625c0-11.25-9.12-20.38-20.37-20.38-11.26,0-20.38,9.13-20.38,20.38,0,11.26,9.12,20.38,20.38,20.38,11.25,0,20.37-9.12,20.37-20.38ZM882.4169140625,1342.65515625c0-15.62-12.66-28.28-28.27-28.28-15.62,0-28.28,12.66-28.28,28.28,0,15.61,12.66,28.27,28.28,28.27,15.61,0,28.27-12.66,28.27-28.27ZM874.5169140625,1425.09515625c0-11.26-9.12-20.38-20.37-20.38-11.26,0-20.38,9.12-20.38,20.38,0,11.25,9.12,20.38,20.38,20.38,11.25,0,20.37-9.13,20.37-20.38ZM808.7969140625,1472.71515625c0-8.01-6.49-14.5-14.5-14.5s-14.5,6.49-14.5,14.5c0,8,6.49,14.49,14.5,14.49s14.5-6.49,14.5-14.49ZM705.0269140625,1487.20515625c0-8-6.49-14.49-14.5-14.49s-14.5,6.49-14.5,14.49c0,8.01,6.49,14.5,14.5,14.5s14.5-6.49,14.5-14.5ZM647.9669140625,1404.71515625c0-11.26-9.12-20.38-20.38-20.38-11.25,0-20.38,9.12-20.38,20.38,0,11.25,9.13,20.38,20.38,20.38,11.26,0,20.38-9.13,20.38-20.38ZM607.2069140625,1335.93515625c0-15.62-12.66-28.28-28.28-28.28-15.61,0-28.27,12.66-28.27,28.28s12.66,28.28,28.27,28.28c15.62,0,28.28-12.66,28.28-28.28Z"/>
        <path class="cls-24" d="M891.8969140625,953.06515625l125.57,275.71-.8.37c-14.94-34.28-115.29-60.78-236.87-60.78-6.4,0-12.74.07-19.01.22h-.01v-319.88c6.14.3,12.44.46,18.88.46,7.96,0,15.72-.24,23.21-.7v189.57c0,4.13,11.48,7.48,25.64,7.48s25.64-3.35,25.64-7.48v-197.12c23.16-6,37.75-14.75,37.75-24.49v136.64Z"/>
        <path class="cls-18" d="M1016.6669140625,1229.14515625c1.27,2.9,1.92,5.87,1.92,8.87,0,38.46-106.91,69.64-238.79,69.64-6.4,0-12.75-.07-19.02-.22v-138.85h.01c6.27-.15,12.61-.22,19.01-.22,121.58,0,221.93,26.5,236.87,60.78Z"/>
        <path class="cls-11" d="M971.1869140625,1307.65515625c15.62,0,28.28,12.66,28.28,28.28s-12.66,28.28-28.28,28.28c-15.61,0-28.27-12.66-28.27-28.28s12.66-28.28,28.27-28.28Z"/>
        <path class="cls-11" d="M942.9169140625,1437.98515625c11.25,0,20.37,9.13,20.37,20.38,0,11.26-9.12,20.38-20.37,20.38-11.26,0-20.38-9.12-20.38-20.38,0-11.25,9.12-20.38,20.38-20.38Z"/>
        <path class="cls-21" d="M760.7769140625,848.70515625c-19.19-.95-36.72-3.31-51.28-6.72v-.01c-25.66-5.99-42.09-15.21-42.09-25.55v-101.88c0,18.08,50.26,32.74,112.25,32.74s112.24-14.66,112.24-32.74v101.88c0,9.74-14.59,18.49-37.75,24.49-14.3,3.71-31.87,6.36-51.28,7.55-7.49.46-15.25.7-23.21.7-6.44,0-12.74-.16-18.88-.46Z"/>
        <path class="cls-21" d="M891.8969140625,632.81515625v81.73c0,18.08-50.25,32.74-112.24,32.74s-112.25-14.66-112.25-32.74v-81.73c0,18.08,50.26,32.74,112.25,32.74s112.24-14.66,112.24-32.74Z"/>
        <path class="cls-11" d="M854.1469140625,1314.37515625c15.61,0,28.27,12.66,28.27,28.28,0,15.61-12.66,28.27-28.27,28.27-15.62,0-28.28-12.66-28.28-28.27,0-15.62,12.66-28.28,28.28-28.28Z"/>
        <path class="cls-11" d="M854.1469140625,1404.71515625c11.25,0,20.37,9.12,20.37,20.38,0,11.25-9.12,20.38-20.37,20.38-11.26,0-20.38-9.13-20.38-20.38,0-11.26,9.12-20.38,20.38-20.38Z"/>
        <path class="cls-21" d="M854.1469140625,608.33515625c23.16,5.99,37.75,14.74,37.75,24.48,0,18.08-50.25,32.74-112.24,32.74s-112.25-14.66-112.25-32.74c0-10.34,16.43-19.56,42.09-25.55v25.55c0,4.13,11.48,7.48,25.64,7.48s25.64-3.35,25.64-7.48v-32.28c6.14-.3,12.44-.46,18.88-.46,7.96,0,15.72.24,23.21.71v32.03c0,4.13,11.48,7.48,25.64,7.48s25.64-3.35,25.64-7.48v-24.48Z"/>
        <path class="cls-17" d="M854.1469140625,840.91515625v197.12c0-4.13-11.48-7.48-25.64-7.48s-25.64,3.35-25.64,7.48v-189.57c19.41-1.19,36.98-3.84,51.28-7.55Z"/>
        <path class="cls-17" d="M854.1469140625,608.33515625v24.48c0-4.13-11.48-7.48-25.64-7.48s-25.64,3.35-25.64,7.48v-32.03c19.41,1.18,36.98,3.84,51.28,7.55Z"/>
        <ellipse class="cls-17" cx="828.5069140625" cy="632.81515625" rx="25.64" ry="7.48"/>
        <ellipse class="cls-17" cx="828.5069140625" cy="1038.03515625" rx="25.64" ry="7.48"/>
        <path class="cls-11" d="M794.2969140625,1458.21515625c8.01,0,14.5,6.49,14.5,14.5,0,8-6.49,14.49-14.5,14.49s-14.5-6.49-14.5-14.49c0-8.01,6.49-14.5,14.5-14.5Z"/>
        <path class="cls-16" d="M760.7769140625,1307.43515625v149.18c0-4.13-11.48-7.48-25.64-7.48s-25.64,3.35-25.64,7.48v-152.03c16.41,1.48,33.57,2.45,51.28,2.85Z"/>
        <path class="cls-16" d="M760.7769140625,1168.58515625v138.85c-17.71-.4-34.87-1.37-51.28-2.85v-462.6c14.56,3.41,32.09,5.77,51.28,6.72v319.88Z"/>
        <path class="cls-16" d="M760.7769140625,600.53515625v32.28c0-4.13-11.48-7.48-25.64-7.48s-25.64,3.35-25.64,7.48v-25.55c14.56-3.41,32.09-5.78,51.28-6.73Z"/>
        <path class="cls-16" d="M760.7769140625,277.17515625v323.36c-19.19.95-36.72,3.32-51.28,6.73v-278.81h-225.08c4.13,0,7.48-11.48,7.48-25.64s-3.35-25.64-7.48-25.64h276.36Z"/>
        <ellipse class="cls-16" cx="735.1369140625" cy="632.81515625" rx="25.64" ry="7.48"/>
        <ellipse class="cls-5" cx="735.1369140625" cy="1456.61515625" rx="25.64" ry="7.48"/>
        <path class="cls-18" d="M709.4969140625,1171.49515625v133.09c-97.57-8.75-168.49-35.25-168.49-66.57,0-3.17.73-6.3,2.14-9.36,12.47-27.09,78.31-49.24,165.64-57.16h.71Z"/>
        <path class="cls-4" d="M709.4969140625,841.98515625v329.51h-.71c-87.33,7.92-153.17,30.07-165.64,57.16l-1.04-.47,125.3-275.12v-136.64c0,10.34,16.43,19.56,42.09,25.55v.01Z"/>
        <path class="cls-11" d="M690.5269140625,1472.71515625c8.01,0,14.5,6.49,14.5,14.49,0,8.01-6.49,14.5-14.5,14.5s-14.5-6.49-14.5-14.5c0-8,6.49-14.49,14.5-14.49Z"/>
        <circle class="cls-11" cx="627.5869140625" cy="1404.71515625" r="20.38"/>
        <path class="cls-11" d="M578.9269140625,1307.65515625c15.62,0,28.28,12.66,28.28,28.28s-12.66,28.28-28.28,28.28c-15.61,0-28.27-12.66-28.27-28.28s12.66-28.28,28.27-28.28Z"/>
        <ellipse class="cls-16" cx="484.4169140625" cy="302.81515625" rx="7.48" ry="25.64"/>
      </g>
      <g>
        <path class="cls-2" d="M1425.8569140625,2214.64515625c8.03,0,14.55,34.62,14.55,77.32,0,42.71-6.52,77.32-14.55,77.32-8.04,0-14.56-34.61-14.56-77.32,0-42.7,6.52-77.32,14.56-77.32Z"/>
        <path class="cls-2" d="M1283.7669140625,2214.64515625c8.04,0,14.56,34.62,14.56,77.32,0,42.71-6.52,77.32-14.56,77.32s-14.55-34.61-14.55-77.32c0-42.7,6.51-77.32,14.55-77.32Z"/>
        <path class="cls-2" d="M1911.1069140625,2243.28515625c5.06,0,9.17,21.79,9.17,48.68s-4.11,48.69-9.17,48.69-9.16-21.8-9.16-48.69,4.1-48.68,9.16-48.68Z"/>
        <path class="cls-2" d="M1911.1069140625,2214.64515625c8.04,0,14.56,34.62,14.56,77.32,0,42.71-6.52,77.32-14.56,77.32-4.35,0-8.25-10.11-10.91-26.15-2.26-13.64-3.64-31.54-3.64-51.17,0-19.62,1.38-37.53,3.64-51.16,2.66-16.04,6.56-26.16,10.91-26.16Z"/>
        <path class="cls-2" d="M1632.9469140625,2214.64515625c8.04,0,14.55,34.62,14.55,77.32,0,42.71-6.51,77.32-14.55,77.32"/>
        <polyline class="cls-2" points="1282.8469140625 2214.64515625 1283.7669140625 2214.64515625 1365.2469140625 2214.64515625 1425.8569140625 2214.64515625 1486.2469140625 2214.64515625 1632.9469140625 2214.64515625"/>
        <polyline class="cls-2" points="1282.8469140625 2369.28515625 1283.7669140625 2369.28515625 1365.2469140625 2369.28515625 1425.8569140625 2369.28515625 1486.2469140625 2369.28515625 1632.9469140625 2369.28515625"/>
        <path class="cls-2" d="M1754.8669140625,2291.96515625c0,85.47-13.04,154.76-29.13,154.76-10.79,0-20.2-31.15-25.24-77.44-2.47-22.75-3.89-49.15-3.89-77.32s1.42-54.57,3.89-77.32c5.04-46.29,14.45-77.44,25.24-77.44,16.09,0,29.13,69.29,29.13,154.76Z"/>
        <path class="cls-2" d="M1752.2469140625,2291.96515625c0,77.76-11.87,140.8-26.51,140.8-9.26,0-17.41-25.24-22.14-63.48-2.76-22.19-4.36-48.76-4.36-77.32s1.6-55.13,4.36-77.32c4.73-38.23,12.88-63.47,22.14-63.47,14.64,0,26.51,63.03,26.51,140.79Z"/>
        <path class="cls-2" d="M1749.2469140625,2291.96515625c0,68.98-10.52,124.9-23.51,124.9-7.49,0-14.16-18.6-18.46-47.58-3.17-21.27-5.05-48.13-5.05-77.32s1.89-56.05,5.05-77.32c4.3-28.97,10.97-47.57,18.46-47.57,12.99,0,23.51,55.92,23.51,124.89Z"/>
        <path class="cls-2" d="M1746.4269140625,2291.96515625c0,1.69-.01,3.37-.03,5.04-.49,58.35-9.55,104.85-20.66,104.85-5.75,0-10.94-12.46-14.69-32.57-3.7-19.85-5.99-47.17-5.99-77.32s2.29-57.47,5.99-77.32c3.75-20.11,8.94-32.57,14.69-32.57,11.43,0,20.69,49.2,20.69,109.89Z"/>
        <path class="cls-2" d="M1714.5769140625,2214.64515625c3.09-12.64,6.96-20.15,11.16-20.15,10.14,0,18.35,43.64,18.35,97.47,0,1.68-.01,3.36-.02,5.02-.5,51.5-8.51,92.46-18.33,92.46-4.2,0-8.08-7.52-11.17-20.16-4.37-17.82-7.18-45.82-7.18-77.32s2.81-59.51,7.19-77.32Z"/>
        <path class="cls-2" d="M1729.9669140625,2214.64515625c6.31,9.71,10.92,40.66,10.92,77.32s-4.61,67.6-10.92,77.32c-1.34,2.07-2.76,3.18-4.23,3.18s-2.89-1.11-4.23-3.18c-6.3-9.72-10.92-40.66-10.92-77.32s4.62-67.61,10.93-77.32c1.34-2.06,2.76-3.17,4.22-3.17s2.88,1.11,4.22,3.17"/>
        <path class="cls-2" d="M1739.1769140625,2291.96515625c0,.98,0,1.96-.02,2.94-.28,38.08-6.18,68.46-13.42,68.46-7.23,0-13.14-30.38-13.42-68.46-.02-.98-.02-1.96-.02-2.94,0-39.43,6.02-71.4,13.44-71.4,7.43,0,13.44,31.97,13.44,71.4Z"/>
        <path class="cls-2" d="M1715.0369140625,2294.89515625c-.01-.97-.01-1.95-.01-2.93,0-31.42,4.8-56.9,10.71-56.9,5.92,0,10.71,25.48,10.71,56.9,0,.98,0,1.96-.01,2.93-.29,30.07-4.96,53.98-10.7,53.98-5.73,0-10.41-23.91-10.7-53.98Z"/>
        <path class="cls-2" d="M1735.2369140625,2291.96515625c0,27.88-4.25,50.48-9.5,50.48-5.24,0-9.5-22.6-9.5-50.48,0-27.87,4.26-50.47,9.5-50.47,5.25,0,9.5,22.6,9.5,50.47Z"/>
        <path class="cls-2" d="M1760.1669140625,2137.20515625c10.79,0,20.2,31.15,25.24,77.44,2.47,22.75,3.89,49.15,3.89,77.32s-1.42,54.57-3.89,77.32c-5.04,46.29-14.45,77.44-25.24,77.44"/>
        <polyline class="cls-2" points="1725.7369140625 2137.20515625 1760.1669140625 2137.20515625 1760.7469140625 2137.20515625"/>
        <polyline class="cls-2" points="1725.7369140625 2446.72515625 1760.1669140625 2446.72515625 1760.7469140625 2446.72515625"/>
        <path class="cls-2" d="M2604.8469140625,2137.20515625c16.09,0,29.13,69.29,29.13,154.76s-13.04,154.76-29.13,154.76c-12.13,0-22.53-39.39-26.91-95.4-1.43-18.28-2.22-38.33-2.22-59.36,0-21.09.79-41.2,2.23-59.52,4.39-55.93,14.78-95.24,26.9-95.24Z"/>
        <path class="cls-2" d="M2604.8469140625,2228.10515625c6.64,0,12.02,28.59,12.02,63.86s-5.38,63.86-12.02,63.86c-.25,0-.5-.04-.75-.12-6.29-2.05-11.27-29.8-11.27-63.74,0-33.99,5-61.78,11.3-63.74.24-.08.48-.12.72-.12Z"/>
        <path class="cls-2" d="M2639.2769140625,2137.20515625c16.09,0,29.13,69.29,29.13,154.76s-13.04,154.76-29.13,154.76"/>
        <polyline class="cls-2" points="2604.8469140625 2137.20515625 2639.2769140625 2137.20515625 2639.8469140625 2137.20515625"/>
        <polyline class="cls-2" points="2604.8469140625 2446.72515625 2639.2769140625 2446.72515625 2639.8469140625 2446.72515625"/>
        <polyline class="cls-2" points="1850.7169140625 2026.74515625 1850.7169140625 2214.64515625 1850.7169140625 2229.52515625 1850.7169140625 2354.40515625 1850.7169140625 2369.28515625 1850.7169140625 2453.63515625"/>
        <line class="cls-2" x1="1850.7169140625" y1="2026.74515625" x2="1971.4969140625" y2="2130.30515625"/>
        <polyline class="cls-2" points="1850.7169140625 2453.63515625 1933.7869140625 2524.85515625 1971.4969140625 2557.18515625"/>
        <polyline class="cls-2" points="1971.4969140625 2130.30515625 1971.4969140625 2524.85515625 1971.4969140625 2557.18515625"/>
        <line class="cls-2" x1="1850.7169140625" y1="2026.74515625" x2="1875.0069140625" y2="2026.74515625"/>
        <line class="cls-2" x1="1971.4969140625" y1="2130.30515625" x2="1995.7869140625" y2="2130.30515625"/>
        <line class="cls-2" x1="1971.4969140625" y1="2557.18515625" x2="1995.7869140625" y2="2557.18515625"/>
        <line class="cls-2" x1="1875.0069140625" y1="2026.74515625" x2="1995.7869140625" y2="2130.30515625"/>
        <line class="cls-2" x1="1365.4669140625" y1="1558.48515625" x2="1486.2469140625" y2="1662.03515625"/>
        <line class="cls-2" x1="1495.9169140625" y1="625.08515625" x2="1564.4469140625" y2="683.83515625"/>
        <line class="cls-2" x1="1495.9169140625" y1="802.12515625" x2="1564.4469140625" y2="860.87515625"/>
        <line class="cls-2" x1="1843.7569140625" y1="625.08515625" x2="1912.2769140625" y2="683.83515625"/>
        <line class="cls-2" x1="2795.4469140625" y1="381.29515625" x2="2990.9869140625" y2="548.94515625"/>
        <line class="cls-2" x1="4147.1269140625" y1="381.29515625" x2="4342.6669140625" y2="548.94515625"/>
        <line class="cls-2" x1="2795.4469140625" y1="880.48515625" x2="2990.9869140625" y2="1048.14515625"/>
        <line class="cls-2" x1="2729.9769140625" y1="1558.48515625" x2="2850.7569140625" y2="1662.03515625"/>
        <line class="cls-2" x1="2729.9769140625" y1="2525.10515625" x2="2850.7569140625" y2="2628.66515625"/>
        <line class="cls-2" x1="1365.4669140625" y1="2525.10515625" x2="1486.2469140625" y2="2628.66515625"/>
        <line class="cls-2" x1="2134.2469140625" y1="1775.02515625" x2="2375.6769140625" y2="1982.02515625"/>
        <line class="cls-2" x1="2164.6769140625" y1="2404.13515625" x2="2244.4169140625" y2="2472.50515625"/>
        <polyline class="cls-2" points="1995.7869140625 2130.30515625 1995.7869140625 2256.91515625 1995.7869140625 2326.80515625 1995.7869140625 2524.85515625 1995.7869140625 2557.18515625"/>
        <path class="cls-2" d="M2214.3169140625,2291.96515625c0,7.53-1.14,13.63-2.56,13.63-1.39,0-2.51-5.8-2.57-13.08v-1.11c.06-7.26,1.19-13.06,2.57-13.06,1.42,0,2.56,6.1,2.56,13.62Z"/>
        <polyline class="cls-2" points="2194.8569140625 2217.74515625 2194.8569140625 2289.09515625 2194.8569140625 2294.82515625 2194.8569140625 2337.21515625"/>
        <line class="cls-2" x1="2194.8569140625" y1="2217.74515625" x2="2228.6569140625" y2="2246.72515625"/>
        <line class="cls-2" x1="2194.8569140625" y1="2337.21515625" x2="2228.6569140625" y2="2366.19515625"/>
        <line class="cls-2" x1="2228.6569140625" y1="2246.72515625" x2="2228.6569140625" y2="2366.19515625"/>
        <line class="cls-2" x1="2194.8569140625" y1="2217.74515625" x2="2201.6469140625" y2="2217.74515625"/>
        <line class="cls-2" x1="2228.6569140625" y1="2246.72515625" x2="2235.4569140625" y2="2246.72515625"/>
        <line class="cls-2" x1="2228.6569140625" y1="2366.19515625" x2="2235.4569140625" y2="2366.19515625"/>
        <line class="cls-2" x1="2201.6469140625" y1="2217.74515625" x2="2235.4569140625" y2="2246.72515625"/>
        <line class="cls-2" x1="2235.4569140625" y1="2246.72515625" x2="2235.4569140625" y2="2366.19515625"/>
        <polyline class="cls-2" points="2134.2469140625 1775.02515625 2158.9669140625 2283.29515625 2159.8069140625 2300.45515625 2164.8269140625 2403.68515625"/>
        <polyline class="cls-2" points="2233.6869140625 1775.02515625 2251.1969140625 1790.02515625 2346.1669140625 1871.35515625 2405.4469140625 1922.12515625 2475.2569140625 1981.91515625"/>
        <polyline class="cls-2" points="2244.4169140625 2472.50515625 2375.7669140625 1982.05515625 2375.8069140625 1981.91515625"/>
        <polyline class="cls-2" points="2343.8669140625 2472.50515625 2384.9669140625 2319.05515625 2400.4869140625 2261.08515625 2475.2569140625 1981.91515625"/>
        <polyline class="cls-2" points="2134.2469140625 1775.02515625 2191.9169140625 1775.02515625 2233.6869140625 1775.02515625"/>
        <line class="cls-2" x1="2375.8069140625" y1="1981.91515625" x2="2475.2569140625" y2="1981.91515625"/>
        <line class="cls-2" x1="2343.8669140625" y1="2472.50515625" x2="2244.4169140625" y2="2472.50515625"/>
        <path class="cls-2" d="M2250.5469140625,1805.40515625c0,6.35-13.14,11.5-29.35,11.5s-29.34-5.15-29.34-11.5c0-.24.02-.47.06-.7.92-6.02,13.67-10.8,29.28-10.8,16.21,0,29.35,5.15,29.35,11.5Z"/>
        <path class="cls-2" d="M2250.5469140625,1602.98515625c0,6.35-13.14,11.5-29.35,11.5-15.61,0-28.36-4.78-29.28-10.8-.04-.23-.06-.46-.06-.7s.02-.47.06-.7c.92-6.03,13.67-10.81,29.28-10.81,16.21,0,29.35,5.15,29.35,11.51Z"/>
        <path class="cls-2" d="M2324.2069140625,1867.02515625c0,6.35-13.14,11.5-29.35,11.5-16.2,0-29.34-5.15-29.34-11.5s13.14-11.5,29.34-11.5c16.21,0,29.35,5.15,29.35,11.5Z"/>
        <path class="cls-2" d="M2405.1469140625,1938.60515625c0,6.36-13.13,11.51-29.34,11.51s-29.35-5.15-29.35-11.51c0-6.35,13.14-11.5,29.35-11.5s29.34,5.15,29.34,11.5Z"/>
        <path class="cls-2" d="M2405.1469140625,1602.98515625c0,6.35-13.13,11.5-29.34,11.5s-29.35-5.15-29.35-11.5c0-6.36,13.14-11.51,29.35-11.51s29.34,5.15,29.34,11.51Z"/>
        <path class="cls-2" d="M891.8969140625,714.54515625c0,18.08-50.25,32.74-112.24,32.74s-112.25-14.66-112.25-32.74"/>
        <path class="cls-2" d="M891.8969140625,632.81515625c0,18.08-50.25,32.74-112.24,32.74s-112.25-14.66-112.25-32.74c0-10.34,16.43-19.56,42.09-25.55,14.56-3.41,32.09-5.78,51.28-6.73,6.14-.3,12.44-.46,18.88-.46,7.96,0,15.72.24,23.21.71,19.41,1.18,36.98,3.84,51.28,7.55,23.16,5.99,37.75,14.74,37.75,24.48Z"/>
        <path class="cls-2" d="M760.7869140625,1168.58515625c6.27-.15,12.61-.22,19.01-.22,121.58,0,221.93,26.5,236.87,60.78,1.27,2.9,1.92,5.87,1.92,8.87,0,38.46-106.91,69.64-238.79,69.64-6.4,0-12.75-.07-19.02-.22-17.71-.4-34.87-1.37-51.28-2.85-97.57-8.75-168.49-35.25-168.49-66.57,0-3.17.73-6.3,2.14-9.36,12.47-27.09,78.31-49.24,165.64-57.16"/>
        <ellipse class="cls-2" cx="735.1369140625" cy="632.81515625" rx="25.64" ry="7.48"/>
        <ellipse class="cls-2" cx="484.4169140625" cy="302.81515625" rx="7.48" ry="25.64"/>
        <path class="cls-2" d="M709.4969140625,1456.61515625c0-4.13,11.48-7.48,25.64-7.48s25.64,3.35,25.64,7.48-11.48,7.48-25.64,7.48-25.64-3.35-25.64-7.48"/>
        <path class="cls-2" d="M802.8669140625,1038.03515625c0-4.13,11.48-7.48,25.64-7.48s25.64,3.35,25.64,7.48-11.48,7.48-25.64,7.48-25.64-3.35-25.64-7.48"/>
        <ellipse class="cls-2" cx="828.5069140625" cy="632.81515625" rx="25.64" ry="7.48"/>
        <path class="cls-2" d="M1617.6669140625,577.52515625c0,4.13-11.48,7.48-25.64,7.48-14.01,0-25.39-3.28-25.63-7.35-.01-.04-.01-.09-.01-.13s0-.09.01-.13c.24-4.07,11.62-7.35,25.63-7.35,14.16,0,25.64,3.35,25.64,7.48Z"/>
        <path class="cls-2" d="M1617.6669140625,647.83515625c0,4.13-11.48,7.48-25.64,7.48s-25.64-3.35-25.64-7.48c0-.04,0-.09.01-.13.23-4.07,11.62-7.35,25.63-7.35,14.16,0,25.64,3.35,25.64,7.48Z"/>
        <ellipse class="cls-2" cx="1796.7569140625" cy="647.83515625" rx="25.64" ry="7.48"/>
        <ellipse class="cls-2" cx="2923.0469140625" cy="1500.25515625" rx="7.48" ry="25.64"/>
        <path class="cls-2" d="M709.4969140625,841.97515625c-25.66-5.99-42.09-15.21-42.09-25.55"/>
        <path class="cls-2" d="M891.8969140625,816.42515625c0,9.74-14.59,18.49-37.75,24.49-14.3,3.71-31.87,6.36-51.28,7.55-7.49.46-15.25.7-23.21.7-6.44,0-12.74-.16-18.88-.46-19.19-.95-36.72-3.31-51.28-6.72"/>
        <path class="cls-2" d="M1106.0969140625,1425.09515625c0,52.59-146.19,95.23-326.52,95.23-180.34,0-326.52-42.64-326.52-95.23"/>
        <polyline class="cls-2" points="667.4069140625 714.54515625 667.4069140625 816.42515625 667.4069140625 953.06515625"/>
        <polyline class="cls-2" points="891.8969140625 714.54515625 891.8969140625 816.42515625 891.8969140625 953.06515625"/>
        <polyline class="cls-2" points="667.4069140625 953.06515625 542.1069140625 1228.18515625 452.5369140625 1424.85515625 452.2769140625 1425.43515625"/>
        <polyline class="cls-2" points="891.8969140625 953.06515625 1017.4669140625 1228.77515625 1106.7469140625 1424.79515625 1107.0369140625 1425.43515625"/>
        <line class="cls-2" x1="667.4069140625" y1="632.81515625" x2="667.4069140625" y2="714.54515625"/>
        <line class="cls-2" x1="891.8969140625" y1="632.81515625" x2="891.8969140625" y2="714.54515625"/>
        <polyline class="cls-2" points="709.4969140625 632.81515625 709.4969140625 607.26515625 709.4969140625 328.45515625"/>
        <polyline class="cls-2" points="760.7769140625 632.81515625 760.7769140625 600.53515625 760.7769140625 277.17515625"/>
        <polyline class="cls-2" points="802.8669140625 632.81515625 802.8669140625 600.78515625 802.8669140625 403.53515625"/>
        <polyline class="cls-2" points="854.1469140625 632.81515625 854.1469140625 608.33515625 854.1469140625 402.49515625"/>
        <polyline class="cls-2" points="709.4969140625 841.97515625 709.4969140625 841.98515625 709.4969140625 1171.49515625 709.4969140625 1304.58515625 709.4969140625 1456.61515625"/>
        <polyline class="cls-2" points="760.7769140625 848.69515625 760.7769140625 848.70515625 760.7769140625 1168.58515625 760.7769140625 1307.43515625 760.7769140625 1456.61515625"/>
        <line class="cls-2" x1="802.8669140625" y1="848.46515625" x2="802.8669140625" y2="1038.03515625"/>
        <line class="cls-2" x1="854.1469140625" y1="840.91515625" x2="854.1469140625" y2="1038.03515625"/>
        <line class="cls-2" x1="854.1469140625" y1="402.49515625" x2="1566.3969140625" y2="402.49515625"/>
        <line class="cls-2" x1="1617.6669140625" y1="351.21515625" x2="802.8669140625" y2="351.21515625"/>
        <line class="cls-2" x1="484.4169140625" y1="328.45515625" x2="709.4969140625" y2="328.45515625"/>
        <line class="cls-2" x1="760.7769140625" y1="277.17515625" x2="484.4169140625" y2="277.17515625"/>
        <line class="cls-2" x1="2251.1969140625" y1="351.21515625" x2="1771.1169140625" y2="351.21515625"/>
        <line class="cls-2" x1="2191.9169140625" y1="402.49515625" x2="1822.3969140625" y2="402.49515625"/>
        <polyline class="cls-2" points="2924.2469140625 1474.61515625 2923.0469140625 1474.61515625 2346.1669140625 1474.61515625"/>
        <polyline class="cls-2" points="2924.2469140625 1525.89515625 2923.0469140625 1525.89515625 2405.4469140625 1525.89515625"/>
        <line class="cls-2" x1="802.8669140625" y1="351.21515625" x2="802.8669140625" y2="403.53515625"/>
        <rect class="cls-2" x="2990.9869140625" y="548.94515625" width="1351.68" height="499.2"/>
        <polygon class="cls-2" points="1912.2769140625 683.83515625 1912.3469140625 683.83515625 1912.3469140625 860.87515625 1564.4469140625 860.87515625 1564.4469140625 683.83515625 1912.2769140625 683.83515625"/>
        <path class="cls-2" d="M3396.8769140625,795.94515625c0,71.06-57.6,128.66-128.66,128.66-71.05,0-128.65-57.6-128.65-128.66,0-71.05,57.6-128.65,128.65-128.65,71.06,0,128.66,57.6,128.66,128.65Z"/>
        <rect class="cls-2" x="3604.7269140625" y="667.29515625" width="619.67" height="251.14"/>
        <rect class="cls-2" x="3258.9469140625" y="668.61515625" width="18.54" height="127.33"/>
        <polyline class="cls-2" points="1566.3969140625 402.49515625 1566.3969140625 577.39515625 1566.3969140625 577.65515625 1566.3969140625 625.08515625 1566.3969140625 647.70515625 1566.3969140625 647.83515625"/>
        <polyline class="cls-2" points="1617.6669140625 647.83515625 1617.6669140625 625.08515625 1617.6669140625 577.52515625 1617.6669140625 351.21515625"/>
        <ellipse class="cls-2" cx="1796.7569140625" cy="577.52515625" rx="25.64" ry="7.48"/>
        <polyline class="cls-2" points="1822.3969140625 402.49515625 1822.3969140625 577.52515625 1822.3969140625 625.08515625 1822.3969140625 647.83515625"/>
        <polyline class="cls-2" points="1771.1169140625 647.83515625 1771.1169140625 625.08515625 1771.1169140625 577.52515625 1771.1169140625 351.21515625"/>
        <polyline class="cls-2" points="2251.1969140625 351.21515625 2251.1969140625 1558.22515625 2251.1969140625 1602.98515625 2251.1969140625 1662.03515625 2251.1969140625 1790.02515625 2251.1969140625 1805.40515625"/>
        <polyline class="cls-2" points="2191.9169140625 1805.40515625 2191.9169140625 1804.70515625 2191.9169140625 1775.02515625 2191.9169140625 1662.03515625 2191.9169140625 1603.68515625 2191.9169140625 1602.28515625 2191.9169140625 1558.22515625 2191.9169140625 402.49515625"/>
        <polyline class="cls-2" points="2405.4469140625 1525.89515625 2405.4469140625 1558.22515625 2405.4469140625 1602.98515625 2405.4469140625 1662.03515625 2405.4469140625 1922.12515625 2405.4469140625 1938.60515625"/>
        <polyline class="cls-2" points="2346.1669140625 1938.60515625 2346.1669140625 1871.35515625 2346.1669140625 1662.03515625 2346.1669140625 1602.98515625 2346.1669140625 1558.22515625 2346.1669140625 1474.61515625"/>
        <polygon class="cls-2" points="2850.7569140625 2628.66515625 1486.2469140625 2628.66515625 1486.2469140625 2524.85515625 1486.2469140625 2369.28515625 1486.2469140625 2214.64515625 1486.2469140625 1662.03515625 2191.9169140625 1662.03515625 2251.1969140625 1662.03515625 2346.1669140625 1662.03515625 2405.4469140625 1662.03515625 2729.7669140625 1662.03515625 2850.7569140625 1662.03515625 2850.7569140625 2628.66515625"/>
        <polygon class="cls-2" points="2729.7669140625 2524.85515625 1995.7869140625 2524.85515625 1971.4969140625 2524.85515625 1933.7869140625 2524.85515625 1486.2469140625 2524.85515625 1365.4669140625 2524.85515625 1365.2469140625 2524.85515625 1365.2469140625 2369.28515625 1365.2469140625 2214.64515625 1365.2469140625 1558.48515625 1365.2469140625 1558.22515625 2191.9169140625 1558.22515625 2251.1969140625 1558.22515625 2346.1669140625 1558.22515625 2405.4469140625 1558.22515625 2729.7669140625 1558.22515625 2729.7669140625 1558.48515625 2729.7669140625 1662.03515625 2729.7669140625 2524.85515625"/>
        <path class="cls-2" d="M607.2069140625,1335.93515625c0,15.62-12.66,28.28-28.28,28.28-15.61,0-28.27-12.66-28.27-28.28s12.66-28.28,28.27-28.28c15.62,0,28.28,12.66,28.28,28.28Z"/>
        <path class="cls-2" d="M999.4669140625,1335.93515625c0,15.62-12.66,28.28-28.28,28.28-15.61,0-28.27-12.66-28.27-28.28s12.66-28.28,28.27-28.28c15.62,0,28.28,12.66,28.28,28.28Z"/>
        <path class="cls-2" d="M882.4169140625,1342.65515625c0,15.61-12.66,28.27-28.27,28.27-15.62,0-28.28-12.66-28.28-28.27,0-15.62,12.66-28.28,28.28-28.28,15.61,0,28.27,12.66,28.27,28.28Z"/>
        <circle class="cls-2" cx="627.5869140625" cy="1404.71515625" r="20.38"/>
        <path class="cls-2" d="M705.0269140625,1487.20515625c0,8.01-6.49,14.5-14.5,14.5s-14.5-6.49-14.5-14.5c0-8,6.49-14.49,14.5-14.49s14.5,6.49,14.5,14.49Z"/>
        <path class="cls-2" d="M808.7969140625,1472.71515625c0,8-6.49,14.49-14.5,14.49s-14.5-6.49-14.5-14.49c0-8.01,6.49-14.5,14.5-14.5s14.5,6.49,14.5,14.5Z"/>
        <path class="cls-2" d="M874.5169140625,1425.09515625c0,11.25-9.12,20.38-20.37,20.38-11.26,0-20.38-9.13-20.38-20.38,0-11.26,9.12-20.38,20.38-20.38,11.25,0,20.37,9.12,20.37,20.38Z"/>
        <path class="cls-2" d="M963.2869140625,1458.36515625c0,11.26-9.12,20.38-20.37,20.38-11.26,0-20.38-9.12-20.38-20.38,0-11.25,9.12-20.38,20.38-20.38,11.25,0,20.37,9.13,20.37,20.38Z"/>
        <polyline class="cls-2" points="1632.9469140625 2214.64515625 1700.4969140625 2214.64515625 1703.5969140625 2214.64515625 1707.2769140625 2214.64515625 1711.0469140625 2214.64515625 1714.5769140625 2214.64515625 1721.5169140625 2214.64515625 1729.9569140625 2214.64515625 1729.9669140625 2214.64515625"/>
        <polyline class="cls-2" points="1632.9469140625 2369.28515625 1700.4969140625 2369.28515625 1703.5969140625 2369.28515625 1707.2769140625 2369.28515625 1711.0469140625 2369.28515625 1714.5669140625 2369.28515625 1721.5069140625 2369.28515625 1729.9669140625 2369.28515625"/>
        <polyline class="cls-2" points="1785.4069140625 2214.64515625 1850.7169140625 2229.52515625 1900.1969140625 2240.80515625 1911.1069140625 2243.28515625"/>
        <polyline class="cls-2" points="1785.4069140625 2214.64515625 1850.7169140625 2214.64515625 1911.1069140625 2214.64515625"/>
        <polyline class="cls-2" points="1785.4069140625 2369.28515625 1850.7169140625 2354.40515625 1900.1969140625 2343.13515625 1911.1069140625 2340.65515625"/>
        <polyline class="cls-2" points="1785.4069140625 2369.28515625 1850.7169140625 2369.28515625 1911.1069140625 2369.28515625"/>
        <polyline class="cls-2" points="1995.5169140625 2256.87515625 1995.7869140625 2256.91515625 2158.9669140625 2283.29515625 2194.8569140625 2289.09515625 2209.1869140625 2291.40515625 2212.6369140625 2291.96515625"/>
        <polyline class="cls-2" points="1995.7869140625 2326.80515625 2159.8069140625 2300.45515625 2194.8569140625 2294.82515625 2209.1869140625 2292.51515625 2212.6369140625 2291.96515625"/>
        <polyline class="cls-2" points="2604.8469140625 2228.10515625 2604.1269140625 2228.22515625 2577.9469140625 2232.44515625 2400.4869140625 2261.08515625"/>
        <polyline class="cls-2" points="2604.8469140625 2355.82515625 2604.0969140625 2355.70515625 2577.9369140625 2351.32515625 2384.9669140625 2319.05515625 2384.9569140625 2319.05515625"/>
        <line class="cls-2" x1="1843.7569140625" y1="625.08515625" x2="1822.3969140625" y2="625.08515625"/>
        <line class="cls-2" x1="1771.1169140625" y1="625.08515625" x2="1617.6669140625" y2="625.08515625"/>
        <line class="cls-2" x1="1495.9169140625" y1="625.08515625" x2="1566.3869140625" y2="625.08515625"/>
        <line class="cls-2" x1="1495.9169140625" y1="625.08515625" x2="1495.9169140625" y2="802.12515625"/>
        <line class="cls-2" x1="2795.4469140625" y1="381.29515625" x2="2795.4469140625" y2="880.48515625"/>
        <line class="cls-2" x1="2795.4469140625" y1="381.29515625" x2="4147.1269140625" y2="381.29515625"/>
      </g>
    </g>
  </g>
  <g id="Arrows_and_Labels" data-name="Arrows and Labels">
    <g>
      <line class="cls-3" x1="389.6458125175" y1="302.8110351562" x2="550.7728877128" y2="302.8110351562"/>
      <polygon class="cls-6" points="544.2074580253 325.2495117188 583.0659785331 302.8110351562 544.2074580253 280.3725585938 544.2074580253 325.2495117188"/>
    </g>
    <g>
      <line class="cls-1" x1="721.3511359519" y1="2292.1975067903" x2="1155.5936896628" y2="2292.1975067903"/>
      <polygon class="cls-19" points="1131.8162848777 2327.0607270051 1261.9061286277 2292.1975067903 1131.8162848777 2257.3342865754 1131.8162848777 2327.0607270051"/>
    </g>
    <g>
      <line class="cls-3" x1="1314.6819458008" y1="2738.7770996094" x2="1721.9378967285" y2="2462.6546630859"/>
      <path class="cls-6" d="M1730.7323226929,2477.1330566406c7.7330551147-5.2430419922,9.7521972656-15.7653808594,4.5092086792-23.4984130859-5.2429885864-7.7329101562-15.7653808594-9.7520751953-23.4984283447-4.5090332031-7.7328338623,5.2429199219-9.7519378662,15.7653808594-4.5089416504,23.4982910156,5.242980957,7.7329101562,15.765335083,9.7520751953,23.4981613159,4.5091552734Z"/>
    </g>
    <g>
      <line class="cls-3" x1="1977.5713043213" y1="2880.6785888672" x2="1977.5713043213" y2="2573.2619628906"/>
      <path class="cls-6" d="M1994.4902648926,2574.1079101562c0-9.3428955078-7.5762023926-16.9190673828-16.9189605713-16.9190673828-9.3427658081,0-16.9189682007,7.576171875-16.9189682007,16.9190673828,0,9.3426513672,7.5762023926,16.9188232422,16.9189682007,16.9188232422,9.3427581787,0,16.9189605713-7.576171875,16.9189605713-16.9188232422Z"/>
    </g>
    <g>
      <line class="cls-3" x1="2744.6577758789" y1="2805.8262939453" x2="2307.1097717285" y2="2485.4256591797"/>
      <path class="cls-6" d="M2317.7880554199,2472.2749023438c-7.5379943848-5.5197753906-18.1266479492-3.8831787109-23.6463623047,3.6546630859-5.519744873,7.5379638672-3.8831787109,18.1265869141,3.6548461914,23.6463623047,7.5377807617,5.5196533203,18.126373291,3.8830566406,23.6461181641-3.6547851562,5.5197143555-7.5379638672,3.8831787109-18.1265869141-3.6546020508-23.6462402344Z"/>
    </g>
    <g>
      <line class="cls-3" x1="3238.6652832031" y1="2485.5899658203" x2="2682.8819580078" y2="2326.0880737305"/>
      <path class="cls-6" d="M2688.3621826172,2310.0588989258c-8.9804077148-2.5772705078-18.3525390625,2.6151123047-20.9297485352,11.5953979492-2.5772094727,8.9802246094,2.6151123047,18.3524169922,11.5955200195,20.9296264648,8.9801635742,2.5772094727,18.3522338867-2.6151733398,20.9294433594-11.5954589844s-2.6151123047-18.3524169922-11.5952148438-20.9295654297Z"/>
    </g>
    <g>
      <line class="cls-3" x1="3350.3541259766" y1="1939.8079223633" x2="2866.8280029297" y2="1927.5146484375"/>
      <path class="cls-6" d="M2868.1036987305,1910.6226196289c-9.33984375-.237487793-17.1062011719,7.143737793-17.3436279297,16.4834594727-.237487793,9.3397827148,7.143737793,17.1060791016,16.4836425781,17.3435668945,9.3395996094.2374267578,17.1058959961-7.1437988281,17.3433227539-16.4835205078.2374267578-9.3397216797-7.1436767578-17.1060791016-16.4833374023-17.3435058594Z"/>
    </g>
    <g>
      <line class="cls-3" x1="2635.2114257812" y1="1029.1283569336" x2="2530.5609130859" y2="872.0894775391"/>
      <path class="cls-6" d="M2545.1091918945,863.4111022949c-5.1810913086-7.7747497559-15.6869506836-9.8779602051-23.4616088867-4.6969604492-7.774597168,5.1809997559-9.8778076172,15.686920166-4.6967163086,23.4616394043,5.1809082031,7.7745056152,15.6867675781,9.8776550293,23.4613647461,4.696685791,7.7746582031-5.1809997559,9.8778686523-15.6868896484,4.6969604492-23.4613647461Z"/>
    </g>
    <g>
      <line class="cls-3" x1="2354.3547673877" y1="248.9798583984" x2="2401.2696386035" y2="714.924987793"/>
      <path class="cls-6" d="M2384.3510442431,715.7782592773c.9359741211,9.2958984375,9.2330627441,16.0749511719,18.5288238525,15.1389770508,9.2957611084-.9359130859,16.0748596191-9.2330322266,15.1388702393-18.5289306641-.9359436035-9.2955932617-9.2330169678-16.0746459961-18.5287780762-15.138671875-9.2957763672.9359130859-16.0748748779,9.2329711914-15.1389160156,18.5286254883Z"/>
    </g>
    <g>
      <line class="cls-3" x1="2850.6811523438" y1="1500.2521209717" x2="3011.8082275391" y2="1500.2521209717"/>
      <polygon class="cls-6" points="3005.2427978516 1522.690612793 3044.1013183594 1500.2521209717 3005.2427978516 1477.8136444092 3005.2427978516 1522.690612793"/>
    </g>
    <g>
      <line class="cls-3" x1="828.5057373047" y1="1191.3541564941" x2="828.5057373047" y2="1090.9990539551"/>
      <polygon class="cls-6" points="850.9442138672 1097.5645141602 828.5057373047 1058.7060241699 806.0672607422 1097.5645141602 850.9442138672 1097.5645141602"/>
    </g>
    <g>
      <line class="cls-3" x1="1592.0301513672" y1="433.2034301758" x2="1592.0301513672" y2="533.5585327148"/>
      <polygon class="cls-6" points="1569.5916748047 526.9931030273 1592.0301513672 565.8515625 1614.4686279297 526.9931030273 1569.5916748047 526.9931030273"/>
    </g>
    <g>
      <line class="cls-3" x1="1796.7556343079" y1="565.8515625" x2="1796.7556343079" y2="465.4964599609"/>
      <polygon class="cls-6" points="1819.1941223145 472.0619506836 1796.7556343079 433.2034301758 1774.3171539307 472.0619506836 1819.1941223145 472.0619506836"/>
    </g>
    <text class="cls-7" transform="translate(3046.1655578613 290.3358764648)"><tspan x="0" y="0">Humidity Controller</tspan></text>
    <text class="cls-7" transform="translate(3076.7077941895 1464.091003418)"><tspan x="0" y="0">Humidifed Helium</tspan><tspan x="313.9892578125" y="120">Out</tspan></text>
    <text class="cls-7" transform="translate(2385.0145874023 1118.7440071106)"><tspan x="0" y="0">RH Sensor</tspan><tspan x="105.5419921875" y="120">Signal</tspan></text>
    <text class="cls-7" transform="translate(2151.5614013672 85.8156738281)"><tspan x="0" y="0">Solenoid</tspan><tspan x="55.615234375" y="120">Signal</tspan></text>
    <text class="cls-7" transform="translate(3728.9277954102 821.6661987305)"><tspan x="0" y="0">RH </tspan><tspan class="cls-10" x="172.216796875" y="0">V</tspan><tspan x="231.494140625" y="0">alue</tspan></text>
    <text class="cls-7" transform="translate(41.4057617188 277.1708984375)"><tspan x="0" y="0">Helium</tspan><tspan x="113.8916015625" y="120">In</tspan></text>
    <text class="cls-7" transform="translate(1534.3713378906 1001.936050415)"><tspan x="0" y="0">Solenoid</tspan><tspan class="cls-10" x="73.2421875" y="120">V</tspan><tspan x="132.51953125" y="120">alve</tspan></text>
    <text class="cls-7" transform="translate(607.4597167969 1690.76953125)"><tspan x="0" y="0">Bubbler</tspan></text>
    <text class="cls-7" transform="translate(-.0002441406 2246.9519042969)"><tspan x="0" y="0">Monochromatic </tspan><tspan x="211.23046875" y="120">X-rays</tspan></text>
    <text class="cls-7" transform="translate(3259.5464706421 2557.1885986328)"><tspan x="0" y="0">Detector</tspan></text>
    <text class="cls-7" transform="translate(3412.1031188965 1938.6087036133)"><tspan x="0" y="0">STXM</tspan><tspan x="-66.748046875" y="120">Chamber</tspan></text>
    <text class="cls-7" transform="translate(2575.9700317383 2922.3465576172)"><tspan x="0" y="0">In-situ Cell</tspan></text>
    <text class="cls-7" transform="translate(1683.5203857422 2995.1459960938)"><tspan x="0" y="0">Order Sorting</tspan><tspan x="108.349609375" y="120">Aperture</tspan></text>
    <text class="cls-7" transform="translate(872.2746582031 2855.2464599609)"><tspan x="0" y="0">Fresnel Zone</tspan><tspan x="180.615234375" y="120">Plate</tspan></text>
    <line class="cls-3" x1="2294.663001019" y1="1867.0241421056" x2="2294.663001019" y2="858.7141503328"/>
    <g>
      <line class="cls-3" x1="2294.6629943848" y1="858.7141418457" x2="2876.9741821289" y2="858.7141418457"/>
      <polygon class="cls-6" points="2860.1226806641 880.9329223633 2869.5621337891 858.7141418457 2860.1226806641 836.4953613281 2912.7926025391 858.7141418457 2860.1226806641 880.9329223633"/>
    </g>
    <g>
      <line class="cls-3" x1="1947.9649810791" y1="730.9172363281" x2="2191.6556396484" y2="730.9172363281"/>
      <polygon class="cls-6" points="1964.8165206909 753.1360473633 1955.3770828247 730.9172363281 1964.8165206909 708.6984863281 1912.1466026306 730.9172363281 1964.8165206909 753.1360473633"/>
    </g>
    <line class="cls-3" x1="2251.0018322318" y1="730.9172620141" x2="2912.7925888659" y2="730.9172620141"/>
  </g>
</svg>