<?xml version="1.0" encoding="UTF-8"?>
<svg xmlns="http://www.w3.org/2000/svg" version="1.1" viewBox="0 0 311.81 56.69">
  <defs>
    <style>
      .cls-1, .cls-2, .cls-3 {
        opacity: .6;
      }

      .cls-4 {
        font-size: 6px;
      }

      .cls-4, .cls-5, .cls-6 {
        fill: #231f20;
      }

      .cls-4, .cls-6 {
        font-family: ArialMT, Arial;
      }

      .cls-7, .cls-8 {
        fill: #f7941d;
      }

      .cls-7, .cls-2, .cls-9, .cls-3 {
        mix-blend-mode: multiply;
      }

      .cls-7, .cls-9, .cls-10 {
        opacity: .4;
      }

      .cls-6 {
        font-size: 5px;
      }

      .cls-11 {
        fill: #fff;
      }

      .cls-2, .cls-12 {
        fill: #27aae1;
      }

      .cls-13 {
        stroke-dasharray: 1;
      }

      .cls-13, .cls-14, .cls-15, .cls-16, .cls-17, .cls-18 {
        fill: none;
        stroke-miterlimit: 10;
      }

      .cls-13, .cls-15 {
        stroke: #ef4136;
      }

      .cls-19 {
        isolation: isolate;
      }

      .cls-14 {
        stroke-width: .25px;
      }

      .cls-14, .cls-16 {
        stroke: #231f20;
      }

      .cls-20, .cls-3 {
        fill: #1c75bc;
      }

      .cls-21 {
        fill: #e6e7e8;
      }

      .cls-22 {
        fill: #2e3192;
      }

      .cls-16 {
        stroke-width: .5px;
      }

      .cls-9, .cls-23 {
        fill: #bcbec0;
      }

      .cls-17 {
        stroke: #00aeef;
        stroke-width: 3px;
      }

      .cls-18 {
        stroke: #2e3192;
        stroke-width: 2px;
      }

      .cls-10, .cls-24 {
        fill: #00aeef;
      }

      .cls-25 {
        fill: #ef4136;
      }

      .cls-26 {
        opacity: .5;
      }
    </style>
  </defs>
  <!-- Generator: Adobe Illustrator 28.7.1, SVG Export Plug-In . SVG Version: 1.2.0 Build 142)  -->
  <g class="cls-19">
    <g id="Membrane">
      <rect class="cls-21" x="9.15" y="2.18" width="107.68" height="53.04"/>
    </g>
    <g id="Humidified">
      <rect class="cls-21" x="179.91" y="2.18" width="107.68" height="53.04"/>
      <g>
        <circle class="cls-12" cx="268.99" cy="42.28" r="1.18"/>
        <path class="cls-2" d="M270.17,42.28c0,.65-.53,1.18-1.18,1.18-.45,0-.84-.25-1.03-.62.19.13.42.2.66.2.65,0,1.18-.53,1.18-1.18,0-.2-.05-.39-.14-.55.31.21.51.56.51.97Z"/>
        <g class="cls-1">
          <path class="cls-11" d="M268.99,41.37c-.48.23-.68.55-.93,1.02-.14-.53.37-1.18.93-1.02h0Z"/>
        </g>
        <circle class="cls-14" cx="268.99" cy="42.28" r="1.18"/>
      </g>
      <g>
        <circle class="cls-12" cx="271.35" cy="44.93" r="1.18"/>
        <path class="cls-2" d="M272.53,44.93c0,.65-.53,1.18-1.18,1.18-.45,0-.84-.25-1.03-.62.19.13.42.2.66.2.65,0,1.18-.53,1.18-1.18,0-.2-.05-.39-.14-.55.31.21.51.56.51.97Z"/>
        <g class="cls-1">
          <path class="cls-11" d="M271.35,44.02c-.48.23-.68.55-.93,1.02-.14-.53.37-1.18.93-1.02h0Z"/>
        </g>
        <circle class="cls-14" cx="271.35" cy="44.93" r="1.18"/>
      </g>
      <g>
        <circle class="cls-12" cx="233.5" cy="15.45" r="1.18"/>
        <path class="cls-2" d="M234.68,15.46c0,.65-.53,1.18-1.18,1.18-.45,0-.84-.25-1.03-.62.19.13.42.2.66.2.65,0,1.18-.53,1.18-1.18,0-.2-.05-.39-.14-.55.31.21.51.56.51.97Z"/>
        <g class="cls-1">
          <path class="cls-11" d="M233.5,14.54c-.48.23-.68.55-.93,1.02-.14-.53.37-1.18.93-1.02h0Z"/>
        </g>
        <circle class="cls-14" cx="233.5" cy="15.45" r="1.18"/>
      </g>
      <g>
        <circle class="cls-12" cx="197.55" cy="42.68" r="1.18"/>
        <path class="cls-2" d="M198.73,42.68c0,.65-.53,1.18-1.18,1.18-.45,0-.84-.25-1.03-.62.19.13.42.2.66.2.65,0,1.18-.53,1.18-1.18,0-.2-.05-.39-.14-.55.31.21.51.56.51.97Z"/>
        <g class="cls-1">
          <path class="cls-11" d="M197.55,41.76c-.48.23-.68.55-.93,1.02-.14-.53.37-1.18.93-1.02h0Z"/>
        </g>
        <circle class="cls-14" cx="197.55" cy="42.68" r="1.18"/>
      </g>
      <g>
        <circle class="cls-8" cx="198.69" cy="15.45" r="11.28"/>
        <circle class="cls-8" cx="198.69" cy="15.45" r="11.28"/>
        <path class="cls-7" d="M210.03,15.45c0,6.23-5.05,11.28-11.28,11.28-4.18,0-7.83-2.28-9.78-5.67,2,1.78,4.63,2.86,7.51,2.86,6.22,0,11.27-5.05,11.27-11.28,0-2.04-.54-3.95-1.49-5.6,2.31,2.06,3.77,5.06,3.77,8.41Z"/>
        <g class="cls-26">
          <path class="cls-11" d="M198.09,5.5c-4.1,1.99-6.73,5-8.23,9.09-.41.93-.67,1.94-1.09,2.9-1.45-5.69,3.12-12.59,9.31-11.99h0Z"/>
        </g>
        <circle class="cls-16" cx="198.69" cy="15.45" r="11.28"/>
      </g>
      <g>
        <circle class="cls-8" cx="231.06" cy="45.67" r="8.52"/>
        <circle class="cls-8" cx="231.06" cy="45.67" r="8.52"/>
        <path class="cls-7" d="M239.63,45.67c0,4.71-3.82,8.53-8.53,8.53-3.16,0-5.92-1.72-7.39-4.29,1.51,1.35,3.5,2.16,5.68,2.16,4.7,0,8.52-3.82,8.52-8.53,0-1.54-.41-2.99-1.13-4.23,1.75,1.56,2.85,3.82,2.85,6.36Z"/>
        <g class="cls-26">
          <path class="cls-11" d="M230.6,38.15c-3.82,2.15-5.47,5.29-7.04,9.06-1.51-4.33,2.26-9.91,7.04-9.06h0Z"/>
        </g>
        <circle class="cls-16" cx="231.06" cy="45.67" r="8.52"/>
      </g>
      <g>
        <circle class="cls-8" cx="271.78" cy="11.48" r="6.5"/>
        <circle class="cls-8" cx="271.78" cy="11.48" r="6.5"/>
        <path class="cls-7" d="M278.32,11.48c0,3.59-2.91,6.5-6.5,6.5-2.41,0-4.51-1.31-5.64-3.27,1.15,1.03,2.67,1.65,4.33,1.65,3.59,0,6.5-2.91,6.5-6.5,0-1.18-.31-2.28-.86-3.23,1.33,1.19,2.17,2.92,2.17,4.85Z"/>
        <g class="cls-26">
          <path class="cls-11" d="M271.43,5.74c-2.78,1.98-3.85,4.14-5.37,6.91-1.55-3.31,1.64-7.94,5.37-6.91h0Z"/>
        </g>
        <circle class="cls-16" cx="271.78" cy="11.48" r="6.5"/>
      </g>
      <g>
        <path class="cls-16" d="M195.86,33.29c0,.53-2.27.53-2.27,1.07s2.27.54,2.27,1.07-2.27.54-2.27,1.07,2.27.54,2.27,1.07"/>
        <circle class="cls-23" cx="195.36" cy="31.73" r="1.35"/>
        <path class="cls-9" d="M196.72,31.73c0,.75-.6,1.36-1.35,1.36-.56,0-1.04-.34-1.25-.83.23.17.52.28.82.28.75,0,1.36-.61,1.36-1.36,0-.19-.04-.36-.11-.52.32.24.53.63.53,1.07Z"/>
        <g class="cls-26">
          <path class="cls-11" d="M195.48,30.89c-.53.58-.31.41-.97.84-.13-.13-.2-.3-.18-.46.01-.55.83-.88,1.15-.37h0Z"/>
        </g>
        <circle class="cls-16" cx="195.36" cy="31.73" r="1.35"/>
        <path class="cls-16" d="M191.13,34.29c.27.46-1.7,1.6-1.43,2.06s2.23-.67,2.5-.21-1.69,1.6-1.43,2.06,2.23-.67,2.5-.21"/>
        <circle class="cls-23" cx="189.92" cy="33.19" r="1.35"/>
        <path class="cls-9" d="M191.09,32.52c.37.65.16,1.48-.49,1.85-.49.28-1.07.23-1.5-.09.28.04.59-.02.85-.17.65-.37.87-1.2.49-1.85-.09-.16-.22-.3-.35-.4.4.05.77.28.99.66Z"/>
        <g class="cls-26">
          <path class="cls-11" d="M189.6,32.41c-.17.76-.06.51-.42,1.21-.18-.05-.32-.16-.39-.31-.27-.49.27-1.18.81-.9h0Z"/>
        </g>
        <circle class="cls-16" cx="189.92" cy="33.19" r="1.35"/>
        <path class="cls-16" d="M187.53,37.53c.46.27-.67,2.23-.21,2.5s1.6-1.7,2.06-1.43-.67,2.23-.2,2.5,1.6-1.7,2.06-1.43"/>
        <circle class="cls-23" cx="185.93" cy="37.18" r="1.35"/>
        <path class="cls-9" d="M186.61,36.01c.65.37.87,1.2.5,1.85-.28.49-.82.73-1.34.67.27-.11.5-.31.65-.57.37-.65.15-1.48-.5-1.85-.16-.09-.33-.15-.51-.17.37-.16.81-.14,1.19.08Z"/>
        <g class="cls-26">
          <path class="cls-11" d="M185.27,36.66c.24.75.2.47.24,1.26-.18.04-.36.02-.49-.07-.47-.29-.35-1.16.25-1.19h0Z"/>
        </g>
        <circle class="cls-16" cx="185.93" cy="37.18" r="1.35"/>
        <path class="cls-16" d="M186.04,42.13c.53,0,.54,2.27,1.07,2.27s.53-2.27,1.07-2.27.54,2.27,1.08,2.27.53-2.27,1.07-2.27"/>
        <circle class="cls-23" cx="184.48" cy="42.63" r="1.35"/>
        <path class="cls-9" d="M184.48,41.28c.75,0,1.36.6,1.36,1.35,0,.56-.34,1.04-.83,1.25.17-.23.28-.52.28-.82,0-.75-.61-1.35-1.36-1.35-.19,0-.36.04-.52.11.24-.32.63-.53,1.07-.53Z"/>
        <g class="cls-26">
          <path class="cls-11" d="M183.64,42.52c.58.53.41.31.84.97-.13.13-.3.2-.46.18-.55-.01-.89-.83-.38-1.15h0Z"/>
        </g>
        <circle class="cls-16" cx="184.48" cy="42.63" r="1.35"/>
        <path class="cls-16" d="M187.05,46.86c.46-.27,1.6,1.69,2.06,1.42s-.68-2.23-.21-2.5,1.6,1.69,2.07,1.42-.67-2.23-.21-2.5"/>
        <circle class="cls-23" cx="185.95" cy="48.07" r="1.35"/>
        <path class="cls-9" d="M185.28,46.9c.65-.38,1.48-.16,1.85.49.28.49.23,1.07-.09,1.5.04-.28-.02-.59-.17-.85-.38-.65-1.21-.87-1.85-.49-.16.09-.3.22-.4.36.05-.4.28-.77.66-.99Z"/>
        <g class="cls-26">
          <path class="cls-11" d="M185.17,48.39c.76.17.51.06,1.21.42-.05.18-.16.32-.31.39-.48.27-1.18-.27-.9-.81h0Z"/>
        </g>
        <circle class="cls-16" cx="185.95" cy="48.07" r="1.35"/>
        <path class="cls-16" d="M190.29,50.45c.27-.46,2.23.66,2.5.2s-1.7-1.59-1.44-2.06,2.23.66,2.5.2-1.7-1.59-1.43-2.06"/>
        <circle class="cls-23" cx="189.95" cy="52.05" r="1.35"/>
        <path class="cls-9" d="M188.78,51.38c.37-.65,1.2-.88,1.85-.5.49.28.74.82.67,1.34-.11-.26-.31-.5-.58-.65-.65-.37-1.48-.15-1.85.5-.09.16-.15.34-.17.51-.16-.37-.14-.81.07-1.19Z"/>
        <g class="cls-26">
          <path class="cls-11" d="M189.43,52.72c.74-.24.47-.2,1.26-.25.04.18.03.36-.07.49-.29.47-1.16.35-1.19-.25h0Z"/>
        </g>
        <circle class="cls-16" cx="189.95" cy="52.05" r="1.35"/>
        <path class="cls-16" d="M194.9,51.93c0-.53,2.27-.54,2.26-1.08s-2.27-.53-2.27-1.06,2.27-.55,2.26-1.08-2.27-.53-2.27-1.06"/>
        <circle class="cls-23" cx="195.4" cy="53.49" r="1.35"/>
        <path class="cls-9" d="M194.05,53.49c0-.75.6-1.36,1.35-1.36.56,0,1.05.34,1.25.82-.23-.17-.52-.28-.82-.28-.75,0-1.35.61-1.35,1.36,0,.19.04.36.11.52-.32-.24-.53-.63-.53-1.07Z"/>
        <g class="cls-26">
          <path class="cls-11" d="M195.29,54.33c.53-.58.31-.41.97-.84.13.13.2.3.18.46,0,.55-.82.89-1.15.38h0Z"/>
        </g>
        <circle class="cls-16" cx="195.4" cy="53.49" r="1.35"/>
        <path class="cls-16" d="M199.63,50.92c-.27-.46,1.69-1.6,1.42-2.07s-2.23.68-2.5.22,1.69-1.61,1.42-2.07-2.23.68-2.5.22"/>
        <circle class="cls-23" cx="200.84" cy="52.01" r="1.35"/>
        <path class="cls-9" d="M199.67,52.69c-.38-.65-.16-1.47.48-1.85.49-.28,1.07-.23,1.5.09-.28-.04-.59.02-.85.17-.65.38-.86,1.21-.49,1.85.09.16.22.3.36.4-.4-.05-.78-.28-1-.66Z"/>
        <g class="cls-26">
          <path class="cls-11" d="M201.17,52.79c.17-.76.06-.51.42-1.21.18.05.32.16.39.31.27.48-.27,1.18-.81.9h0Z"/>
        </g>
        <circle class="cls-16" cx="200.84" cy="52.01" r="1.35"/>
        <path class="cls-16" d="M203.21,47.67c-.46-.26.66-2.23.2-2.5s-1.59,1.7-2.05,1.44.66-2.24.19-2.5-1.59,1.7-2.06,1.44"/>
        <circle class="cls-23" cx="204.81" cy="48" r="1.35"/>
        <path class="cls-9" d="M204.14,49.18c-.65-.37-.88-1.2-.51-1.85.28-.49.81-.74,1.34-.67-.26.11-.5.31-.65.58-.37.65-.14,1.48.51,1.85.16.09.34.15.51.17-.37.16-.81.14-1.19-.07Z"/>
        <g class="cls-26">
          <path class="cls-11" d="M205.48,48.52c-.24-.74-.2-.47-.25-1.26.18-.05.36-.03.49.07.48.28.36,1.16-.25,1.19h0Z"/>
        </g>
        <circle class="cls-16" cx="204.81" cy="48" r="1.35"/>
        <path class="cls-16" d="M204.69,43.06c-.53,0-.55-2.26-1.08-2.26s-.52,2.27-1.06,2.27-.55-2.26-1.09-2.26-.52,2.27-1.06,2.27"/>
        <circle class="cls-23" cx="206.24" cy="42.55" r="1.35"/>
        <path class="cls-9" d="M206.25,43.9c-.75,0-1.36-.6-1.36-1.34,0-.56.34-1.05.82-1.25-.17.23-.28.52-.28.83,0,.75.62,1.35,1.36,1.35.19,0,.36-.04.52-.11-.24.32-.63.53-1.07.53Z"/>
        <g class="cls-26">
          <path class="cls-11" d="M207.08,42.66c-.58-.52-.41-.31-.84-.97.13-.13.3-.2.46-.18.55,0,.89.82.38,1.15h0Z"/>
        </g>
        <circle class="cls-16" cx="206.24" cy="42.55" r="1.35"/>
        <path class="cls-16" d="M203.66,38.33c-.46.27-1.61-1.69-2.07-1.42s.68,2.23.22,2.5-1.61-1.69-2.07-1.41.68,2.23.22,2.5"/>
        <circle class="cls-23" cx="204.75" cy="37.11" r="1.35"/>
        <path class="cls-9" d="M205.43,38.28c-.65.38-1.47.16-1.85-.48-.28-.48-.23-1.07.08-1.5-.04.28.02.59.17.85.38.65,1.21.86,1.85.48.16-.09.3-.22.4-.36-.05.4-.28.78-.66,1Z"/>
        <g class="cls-26">
          <path class="cls-11" d="M205.53,36.79c-.76-.16-.51-.06-1.21-.41.05-.18.16-.32.31-.39.48-.27,1.18.27.91.81h0Z"/>
        </g>
        <circle class="cls-16" cx="204.75" cy="37.11" r="1.35"/>
        <path class="cls-16" d="M200.4,34.75c-.26.46-2.24-.66-2.5-.19s1.71,1.59,1.44,2.05-2.24-.65-2.5-.19,1.71,1.59,1.44,2.05"/>
        <circle class="cls-23" cx="200.74" cy="33.15" r="1.35"/>
        <path class="cls-9" d="M201.91,33.82c-.37.65-1.19.88-1.84.51-.49-.28-.74-.81-.68-1.34.11.26.31.5.58.65.65.37,1.48.14,1.85-.51.09-.16.15-.34.17-.51.16.37.15.81-.07,1.19Z"/>
        <g class="cls-26">
          <path class="cls-11" d="M201.25,32.48c-.74.24-.47.2-1.26.25-.05-.18-.03-.36.07-.49.28-.48,1.16-.36,1.19.24h0Z"/>
        </g>
        <circle class="cls-16" cx="200.74" cy="33.15" r="1.35"/>
      </g>
      <g>
        <path class="cls-16" d="M270.2,31.93c0,.55-2.27.55-2.27,1.1s2.27.55,2.27,1.1-2.27.55-2.27,1.11,2.27.55,2.27,1.11"/>
        <circle class="cls-23" cx="269.72" cy="30.32" r="1.4"/>
        <path class="cls-9" d="M271.11,30.32c0,.77-.62,1.4-1.39,1.4-.58,0-1.08-.35-1.29-.85.23.18.53.29.85.29.77,0,1.4-.63,1.4-1.4,0-.19-.04-.38-.11-.54.33.25.54.65.54,1.1Z"/>
        <g class="cls-26">
          <path class="cls-11" d="M269.84,29.46c-.54.57-.34.42-1,.86-.63-.63.48-1.58,1-.86h0Z"/>
        </g>
        <circle class="cls-16" cx="269.72" cy="30.32" r="1.4"/>
        <path class="cls-16" d="M265.33,32.98c.28.48-1.69,1.61-1.41,2.09s2.24-.66,2.52-.18-1.69,1.61-1.41,2.09,2.24-.66,2.52-.18"/>
        <circle class="cls-23" cx="264.11" cy="31.83" r="1.4"/>
        <path class="cls-9" d="M265.32,31.13c.39.67.16,1.52-.51,1.91-.5.29-1.11.23-1.54-.09.29.04.61-.02.88-.17.67-.39.9-1.24.51-1.91-.1-.17-.22-.31-.36-.41.41.05.8.29,1.02.68Z"/>
        <g class="cls-26">
          <path class="cls-11" d="M263.78,31.02c-.18.77-.08.53-.43,1.25-.86-.24-.38-1.61.43-1.25h0Z"/>
        </g>
        <circle class="cls-16" cx="264.11" cy="31.83" r="1.4"/>
        <path class="cls-16" d="M261.64,36.32c.48.27-.65,2.24-.18,2.51s1.61-1.69,2.09-1.42-.65,2.24-.17,2.52,1.61-1.69,2.09-1.41"/>
        <circle class="cls-23" cx="260.01" cy="35.94" r="1.4"/>
        <path class="cls-9" d="M260.7,34.73c.67.38.9,1.24.52,1.9-.29.5-.84.76-1.38.69.27-.11.52-.32.67-.59.38-.67.15-1.52-.51-1.91-.17-.1-.34-.15-.52-.17.38-.16.84-.15,1.23.08Z"/>
        <g class="cls-26">
          <path class="cls-11" d="M259.32,35.4c.23.76.2.5.25,1.3-.86.23-1.13-1.2-.25-1.3h0Z"/>
        </g>
        <circle class="cls-16" cx="260.01" cy="35.94" r="1.4"/>
        <path class="cls-16" d="M260.12,41.07c.55,0,.55,2.27,1.11,2.27s.55-2.27,1.1-2.27.56,2.27,1.11,2.27.55-2.27,1.1-2.27"/>
        <circle class="cls-23" cx="258.51" cy="41.55" r="1.4"/>
        <path class="cls-9" d="M258.51,40.16c.77,0,1.4.62,1.4,1.39,0,.58-.35,1.08-.85,1.29.18-.23.29-.53.29-.85,0-.77-.63-1.4-1.4-1.39-.19,0-.38.04-.54.11.25-.33.65-.54,1.1-.55Z"/>
        <g class="cls-26">
          <path class="cls-11" d="M257.65,41.43c.57.54.42.34.87,1-.63.63-1.58-.48-.87-1h0Z"/>
        </g>
        <circle class="cls-16" cx="258.51" cy="41.55" r="1.4"/>
        <path class="cls-16" d="M261.18,45.94c.48-.28,1.61,1.68,2.09,1.41s-.66-2.24-.19-2.51,1.62,1.68,2.1,1.41-.66-2.24-.18-2.52"/>
        <circle class="cls-23" cx="260.03" cy="47.16" r="1.4"/>
        <path class="cls-9" d="M259.33,45.95c.67-.39,1.52-.16,1.91.5.29.5.24,1.11-.09,1.54.04-.29-.02-.61-.18-.88-.39-.67-1.24-.89-1.91-.51-.17.1-.31.22-.41.37.05-.41.29-.8.68-1.02Z"/>
        <g class="cls-26">
          <path class="cls-11" d="M259.22,47.49c.77.18.53.08,1.25.43-.23.86-1.61.38-1.25-.43h0Z"/>
        </g>
        <circle class="cls-16" cx="260.03" cy="47.16" r="1.4"/>
        <path class="cls-16" d="M264.53,49.62c.27-.48,2.24.65,2.51.17s-1.69-1.61-1.42-2.08,2.24.65,2.52.17-1.69-1.61-1.42-2.09"/>
        <circle class="cls-23" cx="264.15" cy="51.25" r="1.4"/>
        <path class="cls-9" d="M262.94,50.56c.38-.67,1.23-.9,1.9-.52.5.29.76.84.69,1.38-.11-.27-.32-.52-.59-.67-.67-.38-1.52-.15-1.91.52-.1.17-.15.35-.17.52-.16-.38-.15-.84.08-1.23Z"/>
        <g class="cls-26">
          <path class="cls-11" d="M263.61,51.94c.76-.23.5-.2,1.3-.25.23.86-1.2,1.14-1.3.25h0Z"/>
        </g>
        <circle class="cls-16" cx="264.15" cy="51.25" r="1.4"/>
        <path class="cls-16" d="M269.28,51.13c0-.55,2.27-.56,2.26-1.11s-2.27-.54-2.27-1.09,2.27-.56,2.26-1.11-2.27-.54-2.27-1.1"/>
        <circle class="cls-23" cx="269.76" cy="52.74" r="1.4"/>
        <path class="cls-9" d="M268.37,52.74c0-.77.62-1.4,1.39-1.4.58,0,1.08.35,1.29.85-.24-.18-.53-.29-.85-.29-.77,0-1.39.63-1.39,1.4,0,.19.04.38.11.54-.33-.25-.55-.65-.55-1.1Z"/>
        <g class="cls-26">
          <path class="cls-11" d="M269.65,53.6c.54-.58.34-.42,1-.87.63.63-.47,1.58-1,.87h0Z"/>
        </g>
        <circle class="cls-16" cx="269.76" cy="52.74" r="1.4"/>
        <path class="cls-16" d="M274.14,50.07c-.28-.48,1.68-1.62,1.4-2.09s-2.24.67-2.51.19,1.68-1.62,1.4-2.1-2.24.66-2.52.19"/>
        <circle class="cls-23" cx="275.37" cy="51.21" r="1.4"/>
        <path class="cls-9" d="M274.16,51.91c-.39-.67-.17-1.52.5-1.91.5-.29,1.11-.24,1.54.09-.29-.04-.61.02-.88.18-.67.39-.89,1.24-.5,1.91.1.17.22.3.37.41-.41-.05-.8-.29-1.03-.68Z"/>
        <g class="cls-26">
          <path class="cls-11" d="M275.7,52.02c.18-.77.08-.53.43-1.25.86.23.38,1.61-.43,1.25h0Z"/>
        </g>
        <circle class="cls-16" cx="275.37" cy="51.21" r="1.4"/>
        <path class="cls-16" d="M277.82,46.71c-.48-.27.65-2.24.17-2.52s-1.6,1.7-2.08,1.42.64-2.24.16-2.52-1.6,1.7-2.08,1.42"/>
        <circle class="cls-23" cx="279.45" cy="47.08" r="1.4"/>
        <path class="cls-9" d="M278.76,48.29c-.67-.38-.9-1.23-.52-1.9.29-.5.84-.76,1.38-.69-.27.11-.51.32-.67.59-.38.67-.15,1.52.52,1.9.17.09.35.15.52.17-.38.16-.84.15-1.23-.07Z"/>
        <g class="cls-26">
          <path class="cls-11" d="M280.14,47.62c-.23-.76-.2-.5-.26-1.3.86-.23,1.14,1.2.26,1.3h0Z"/>
        </g>
        <circle class="cls-16" cx="279.45" cy="47.08" r="1.4"/>
        <path class="cls-16" d="M279.33,41.96c-.55,0-.56-2.26-1.11-2.26s-.54,2.27-1.09,2.27-.57-2.26-1.12-2.26-.54,2.27-1.09,2.27"/>
        <circle class="cls-23" cx="280.93" cy="41.47" r="1.4"/>
        <path class="cls-9" d="M280.93,42.86c-.77,0-1.4-.61-1.4-1.38,0-.58.35-1.08.85-1.29-.18.24-.29.53-.28.85,0,.77.63,1.39,1.4,1.39.19,0,.38-.04.54-.11-.25.33-.65.55-1.1.55Z"/>
        <g class="cls-26">
          <path class="cls-11" d="M281.79,41.58c-.58-.54-.42-.33-.87-.99.63-.63,1.59.47.87.99h0Z"/>
        </g>
        <circle class="cls-16" cx="280.93" cy="41.47" r="1.4"/>
        <path class="cls-16" d="M278.25,37.09c-.48.28-1.62-1.68-2.1-1.4s.67,2.24.19,2.51-1.62-1.68-2.1-1.4.67,2.24.19,2.52"/>
        <circle class="cls-23" cx="279.39" cy="35.87" r="1.4"/>
        <path class="cls-9" d="M280.09,37.07c-.66.39-1.52.17-1.91-.5-.29-.5-.24-1.11.09-1.54-.04.29.02.61.18.88.39.66,1.25.89,1.91.5.17-.1.3-.22.41-.37-.05.41-.29.8-.68,1.03Z"/>
        <g class="cls-26">
          <path class="cls-11" d="M280.2,35.53c-.77-.18-.53-.08-1.25-.43.23-.86,1.61-.39,1.25.43h0Z"/>
        </g>
        <circle class="cls-16" cx="279.39" cy="35.87" r="1.4"/>
        <path class="cls-16" d="M274.88,33.42c-.27.48-2.24-.64-2.52-.16s1.7,1.6,1.43,2.08-2.24-.64-2.52-.16,1.7,1.6,1.43,2.08"/>
        <circle class="cls-23" cx="275.26" cy="31.79" r="1.4"/>
        <path class="cls-9" d="M276.47,32.48c-.38.67-1.23.91-1.9.53-.5-.29-.76-.84-.7-1.38.12.27.32.51.59.67.67.38,1.52.15,1.9-.52.09-.17.15-.35.17-.52.17.38.15.84-.07,1.23Z"/>
        <g class="cls-26">
          <path class="cls-11" d="M275.79,31.09c-.76.23-.5.2-1.3.26-.23-.86,1.2-1.14,1.3-.26h0Z"/>
        </g>
        <circle class="cls-16" cx="275.26" cy="31.79" r="1.4"/>
      </g>
      <g>
        <path class="cls-16" d="M235.57,7.97c0,.53-2.27.53-2.27,1.05s2.27.53,2.27,1.05-2.27.53-2.27,1.06,2.27.53,2.27,1.06"/>
        <circle class="cls-23" cx="235.06" cy="6.43" r="1.33"/>
        <path class="cls-9" d="M236.39,6.43c0,.74-.59,1.33-1.33,1.33-.55,0-1.03-.34-1.23-.81.22.17.51.28.81.28.74,0,1.33-.6,1.33-1.33,0-.18-.04-.36-.1-.52.32.24.52.62.52,1.05Z"/>
        <g class="cls-26">
          <path class="cls-11" d="M235.18,5.61c-.52.58-.29.4-.95.83-.63-.6.46-1.55.95-.83h0Z"/>
        </g>
        <circle class="cls-16" cx="235.06" cy="6.43" r="1.33"/>
        <path class="cls-16" d="M230.91,8.94c.26.46-1.7,1.59-1.44,2.05s2.23-.68,2.49-.22-1.7,1.59-1.43,2.05,2.23-.68,2.49-.22"/>
        <circle class="cls-23" cx="229.71" cy="7.87" r="1.33"/>
        <path class="cls-9" d="M230.86,7.2c.37.64.15,1.45-.48,1.82-.48.28-1.06.22-1.47-.09.28.04.58-.01.84-.17.64-.37.86-1.18.49-1.82-.09-.16-.21-.29-.35-.39.39.05.76.28.98.65Z"/>
        <g class="cls-26">
          <path class="cls-11" d="M229.39,7.1c-.16.76-.05.5-.41,1.19-.84-.2-.38-1.57.41-1.19h0Z"/>
        </g>
        <circle class="cls-16" cx="229.71" cy="7.87" r="1.33"/>
        <path class="cls-16" d="M227.37,12.12c.46.26-.68,2.23-.22,2.49s1.59-1.7,2.04-1.44-.67,2.23-.22,2.49,1.59-1.7,2.05-1.44"/>
        <circle class="cls-23" cx="225.79" cy="11.8" r="1.33"/>
        <path class="cls-9" d="M226.45,10.64c.64.37.86,1.18.49,1.82-.28.48-.8.72-1.32.66.26-.11.49-.3.64-.56.37-.64.15-1.45-.49-1.82-.16-.09-.33-.15-.5-.17.37-.16.8-.14,1.17.08Z"/>
        <g class="cls-26">
          <path class="cls-11" d="M225.13,11.28c.24.74.2.46.24,1.24-.83.25-1.11-1.17-.24-1.24h0Z"/>
        </g>
        <circle class="cls-16" cx="225.79" cy="11.8" r="1.33"/>
        <path class="cls-16" d="M225.89,16.64c.53,0,.53,2.27,1.06,2.27s.52-2.27,1.05-2.27.53,2.27,1.06,2.27.52-2.27,1.05-2.27"/>
        <circle class="cls-23" cx="224.36" cy="17.15" r="1.33"/>
        <path class="cls-9" d="M224.36,15.82c.74,0,1.33.59,1.34,1.33,0,.55-.33,1.03-.81,1.23.17-.22.28-.51.27-.81,0-.74-.6-1.33-1.34-1.33-.18,0-.36.04-.52.11.24-.32.62-.52,1.05-.52Z"/>
        <g class="cls-26">
          <path class="cls-11" d="M223.54,17.04c.58.52.41.29.83.95-.6.63-1.55-.45-.83-.95h0Z"/>
        </g>
        <circle class="cls-16" cx="224.36" cy="17.15" r="1.33"/>
        <path class="cls-16" d="M226.88,21.3c.45-.26,1.59,1.7,2.05,1.43s-.68-2.23-.23-2.49,1.6,1.7,2.05,1.43-.68-2.23-.23-2.49"/>
        <circle class="cls-23" cx="225.81" cy="22.51" r="1.33"/>
        <path class="cls-9" d="M225.14,21.36c.64-.37,1.45-.16,1.82.48.28.48.23,1.06-.09,1.47.04-.28-.02-.58-.17-.84-.37-.64-1.19-.85-1.82-.48-.16.09-.29.21-.39.35.05-.39.28-.76.65-.98Z"/>
        <g class="cls-26">
          <path class="cls-11" d="M225.04,22.82c.76.16.5.05,1.19.41-.2.84-1.57.38-1.19-.41h0Z"/>
        </g>
        <circle class="cls-16" cx="225.81" cy="22.51" r="1.33"/>
        <path class="cls-16" d="M230.06,24.84c.26-.46,2.23.67,2.49.22s-1.71-1.58-1.44-2.04,2.23.67,2.49.21-1.7-1.59-1.44-2.04"/>
        <circle class="cls-23" cx="229.74" cy="26.42" r="1.33"/>
        <path class="cls-9" d="M228.59,25.76c.37-.64,1.18-.86,1.82-.5.48.27.72.8.66,1.32-.11-.26-.3-.49-.57-.64-.64-.37-1.45-.14-1.82.49-.09.16-.15.33-.17.5-.16-.37-.14-.8.07-1.17Z"/>
        <g class="cls-26">
          <path class="cls-11" d="M229.23,27.08c.74-.24.45-.21,1.24-.24.25.83-1.16,1.11-1.24.24h0Z"/>
        </g>
        <circle class="cls-16" cx="229.74" cy="26.42" r="1.33"/>
        <path class="cls-16" d="M234.59,26.31c0-.53,2.27-.53,2.26-1.06s-2.27-.52-2.27-1.04,2.27-.54,2.26-1.06-2.27-.52-2.27-1.05"/>
        <circle class="cls-23" cx="235.1" cy="27.84" r="1.33"/>
        <path class="cls-9" d="M233.77,27.84c0-.74.59-1.34,1.32-1.34.55,0,1.03.33,1.23.81-.22-.17-.51-.27-.81-.27-.74,0-1.33.6-1.33,1.34,0,.18.04.36.11.52-.32-.24-.52-.62-.52-1.05Z"/>
        <g class="cls-26">
          <path class="cls-11" d="M234.99,28.66c.52-.58.29-.41.95-.83.63.6-.45,1.55-.95.83h0Z"/>
        </g>
        <circle class="cls-16" cx="235.1" cy="27.84" r="1.33"/>
        <path class="cls-16" d="M239.24,25.31c-.26-.45,1.69-1.6,1.43-2.05s-2.22.69-2.49.23,1.69-1.6,1.43-2.05-2.22.69-2.49.23"/>
        <circle class="cls-23" cx="240.45" cy="26.38" r="1.33"/>
        <path class="cls-9" d="M239.3,27.05c-.37-.64-.16-1.45.48-1.82.48-.28,1.06-.23,1.47.08-.28-.04-.58.02-.84.17-.64.37-.85,1.19-.48,1.82.09.16.21.29.35.39-.39-.05-.76-.28-.98-.65Z"/>
        <g class="cls-26">
          <path class="cls-11" d="M240.77,27.15c.16-.76.05-.5.41-1.19.84.2.39,1.57-.41,1.19h0Z"/>
        </g>
        <circle class="cls-16" cx="240.45" cy="26.38" r="1.33"/>
        <path class="cls-16" d="M242.77,22.12c-.46-.26.67-2.23.21-2.49s-1.58,1.71-2.04,1.45.67-2.23.21-2.49-1.58,1.71-2.04,1.45"/>
        <circle class="cls-23" cx="244.36" cy="22.44" r="1.33"/>
        <path class="cls-9" d="M243.7,23.59c-.64-.36-.86-1.18-.5-1.82.27-.48.8-.73,1.32-.66-.26.11-.49.3-.64.57-.36.64-.14,1.45.5,1.82.16.09.33.15.5.16-.36.16-.8.14-1.17-.07Z"/>
        <g class="cls-26">
          <path class="cls-11" d="M245.02,22.95c-.24-.74-.21-.45-.24-1.24.83-.25,1.12,1.16.24,1.24h0Z"/>
        </g>
        <circle class="cls-16" cx="244.36" cy="22.44" r="1.33"/>
        <path class="cls-16" d="M244.23,17.59c-.53,0-.54-2.26-1.06-2.26s-.51,2.27-1.04,2.27-.54-2.26-1.07-2.26-.52,2.27-1.04,2.27"/>
        <circle class="cls-23" cx="245.76" cy="17.07" r="1.33"/>
        <path class="cls-9" d="M245.77,18.4c-.74,0-1.34-.59-1.34-1.32,0-.55.33-1.03.81-1.23-.17.23-.27.51-.27.81,0,.74.61,1.33,1.34,1.33.18,0,.36-.04.51-.11-.24.32-.62.52-1.05.53Z"/>
        <g class="cls-26">
          <path class="cls-11" d="M246.59,17.18c-.58-.52-.41-.29-.83-.95.59-.63,1.55.45.83.95h0Z"/>
        </g>
        <circle class="cls-16" cx="245.76" cy="17.07" r="1.33"/>
        <path class="cls-16" d="M243.23,12.94c-.45.27-1.6-1.69-2.05-1.43s.69,2.22.24,2.49-1.6-1.69-2.06-1.42.69,2.22.23,2.49"/>
        <circle class="cls-23" cx="244.3" cy="11.73" r="1.33"/>
        <path class="cls-9" d="M244.97,12.87c-.63.37-1.45.16-1.82-.47-.28-.48-.23-1.06.08-1.47-.03.28.02.58.17.84.37.63,1.19.85,1.82.48.16-.09.29-.21.39-.35-.05.39-.28.76-.65.98Z"/>
        <g class="cls-26">
          <path class="cls-11" d="M245.07,11.41c-.76-.16-.5-.05-1.19-.41.2-.85,1.56-.39,1.19.41h0Z"/>
        </g>
        <circle class="cls-16" cx="244.3" cy="11.73" r="1.33"/>
        <path class="cls-16" d="M240.04,9.41c-.26.46-2.23-.66-2.49-.21s1.71,1.58,1.45,2.04-2.23-.66-2.49-.2,1.71,1.58,1.45,2.04"/>
        <circle class="cls-23" cx="240.35" cy="7.83" r="1.33"/>
        <path class="cls-9" d="M241.51,8.49c-.36.64-1.17.87-1.81.5-.48-.27-.73-.8-.67-1.31.11.26.31.49.57.64.64.36,1.45.14,1.82-.5.09-.16.14-.33.16-.5.16.36.14.8-.07,1.17Z"/>
        <g class="cls-26">
          <path class="cls-11" d="M240.86,7.17c-.74.24-.45.21-1.24.25-.25-.83,1.16-1.12,1.24-.25h0Z"/>
        </g>
        <circle class="cls-16" cx="240.35" cy="7.83" r="1.33"/>
      </g>
    </g>
    <g id="Protons">
      <g>
        <circle class="cls-12" cx="98.23" cy="42.28" r="1.18"/>
        <path class="cls-2" d="M99.41,42.28c0,.65-.53,1.18-1.18,1.18-.45,0-.84-.25-1.03-.62.19.13.42.2.66.2.65,0,1.18-.53,1.18-1.18,0-.2-.05-.39-.14-.55.31.21.51.56.51.97Z"/>
        <g class="cls-1">
          <path class="cls-11" d="M98.23,41.37c-.48.23-.68.55-.93,1.02-.14-.53.37-1.18.93-1.02h0Z"/>
        </g>
        <circle class="cls-14" cx="98.23" cy="42.28" r="1.18"/>
      </g>
      <g>
        <circle class="cls-12" cx="100.59" cy="44.93" r="1.18"/>
        <path class="cls-2" d="M101.77,44.93c0,.65-.53,1.18-1.18,1.18-.45,0-.84-.25-1.03-.62.19.13.42.2.66.2.65,0,1.18-.53,1.18-1.18,0-.2-.05-.39-.14-.55.31.21.51.56.51.97Z"/>
        <g class="cls-1">
          <path class="cls-11" d="M100.59,44.02c-.48.23-.68.55-.93,1.02-.14-.53.37-1.18.93-1.02h0Z"/>
        </g>
        <circle class="cls-14" cx="100.59" cy="44.93" r="1.18"/>
      </g>
      <g>
        <circle class="cls-12" cx="63.46" cy="17.18" r="1.18"/>
        <path class="cls-2" d="M64.64,17.18c0,.65-.53,1.18-1.18,1.18-.45,0-.84-.25-1.03-.62.19.13.42.2.66.2.65,0,1.18-.53,1.18-1.18,0-.2-.05-.39-.14-.55.31.21.51.56.51.97Z"/>
        <g class="cls-1">
          <path class="cls-11" d="M63.46,16.27c-.48.23-.68.55-.93,1.02-.14-.53.37-1.18.93-1.02h0Z"/>
        </g>
        <circle class="cls-14" cx="63.46" cy="17.18" r="1.18"/>
      </g>
      <g>
        <circle class="cls-12" cx="22.41" cy="43.16" r="1.18"/>
        <path class="cls-2" d="M23.59,43.16c0,.65-.53,1.18-1.18,1.18-.45,0-.84-.25-1.03-.62.19.13.42.2.66.2.65,0,1.18-.53,1.18-1.18,0-.2-.05-.39-.14-.55.31.21.51.56.51.97Z"/>
        <g class="cls-1">
          <path class="cls-11" d="M22.41,42.25c-.48.23-.68.55-.93,1.02-.14-.53.37-1.18.93-1.02h0Z"/>
        </g>
        <circle class="cls-14" cx="22.41" cy="43.16" r="1.18"/>
      </g>
      <g>
        <circle class="cls-12" cx="26.79" cy="42.68" r="1.18"/>
        <path class="cls-2" d="M27.97,42.68c0,.65-.53,1.18-1.18,1.18-.45,0-.84-.25-1.03-.62.19.13.42.2.66.2.65,0,1.18-.53,1.18-1.18,0-.2-.05-.39-.14-.55.31.21.51.56.51.97Z"/>
        <g class="cls-1">
          <path class="cls-11" d="M26.79,41.76c-.48.23-.68.55-.93,1.02-.14-.53.37-1.18.93-1.02h0Z"/>
        </g>
        <circle class="cls-14" cx="26.79" cy="42.68" r="1.18"/>
      </g>
      <g>
        <circle class="cls-12" cx="194.01" cy="40.51" r="1.18"/>
        <path class="cls-2" d="M195.19,40.51c0,.65-.53,1.18-1.18,1.18-.45,0-.84-.25-1.03-.62.19.13.42.2.66.2.65,0,1.18-.53,1.18-1.18,0-.2-.05-.39-.14-.55.31.21.51.56.51.97Z"/>
        <g class="cls-1">
          <path class="cls-11" d="M194.01,39.6c-.48.23-.68.55-.93,1.02-.14-.53.37-1.18.93-1.02h0Z"/>
        </g>
        <circle class="cls-14" cx="194.01" cy="40.51" r="1.18"/>
      </g>
      <g>
        <circle class="cls-12" cx="217.43" cy="4.17" r="1.18"/>
        <path class="cls-2" d="M218.61,4.18c0,.65-.53,1.18-1.18,1.18-.45,0-.84-.25-1.03-.62.19.13.42.2.66.2.65,0,1.18-.53,1.18-1.18,0-.2-.05-.39-.14-.55.31.21.51.56.51.97Z"/>
        <g class="cls-1">
          <path class="cls-11" d="M217.43,3.26c-.48.23-.68.55-.93,1.02-.14-.53.37-1.18.93-1.02h0Z"/>
        </g>
        <circle class="cls-14" cx="217.43" cy="4.17" r="1.18"/>
      </g>
      <g>
        <circle class="cls-12" cx="222.83" cy="53.66" r="1.18"/>
        <path class="cls-2" d="M224.01,53.66c0,.65-.53,1.18-1.18,1.18-.45,0-.84-.25-1.03-.62.19.13.42.2.66.2.65,0,1.18-.53,1.18-1.18,0-.2-.05-.39-.14-.55.31.21.51.56.51.97Z"/>
        <g class="cls-1">
          <path class="cls-11" d="M222.83,52.75c-.48.23-.68.55-.93,1.02-.14-.53.37-1.18.93-1.02h0Z"/>
        </g>
        <circle class="cls-14" cx="222.83" cy="53.66" r="1.18"/>
      </g>
      <g>
        <circle class="cls-12" cx="243.02" cy="53.6" r="1.18"/>
        <path class="cls-2" d="M244.2,53.61c0,.65-.53,1.18-1.18,1.18-.45,0-.84-.25-1.03-.62.19.13.42.2.66.2.65,0,1.18-.53,1.18-1.18,0-.2-.05-.39-.14-.55.31.21.51.56.51.97Z"/>
        <g class="cls-1">
          <path class="cls-11" d="M243.02,52.69c-.48.23-.68.55-.93,1.02-.14-.53.37-1.18.93-1.02h0Z"/>
        </g>
        <circle class="cls-14" cx="243.02" cy="53.6" r="1.18"/>
      </g>
      <g>
        <circle class="cls-12" cx="284.82" cy="34.13" r="1.18"/>
        <path class="cls-2" d="M286,34.14c0,.65-.53,1.18-1.18,1.18-.45,0-.84-.25-1.03-.62.19.13.42.2.66.2.65,0,1.18-.53,1.18-1.18,0-.2-.05-.39-.14-.55.31.21.51.56.51.97Z"/>
        <g class="cls-1">
          <path class="cls-11" d="M284.82,33.22c-.48.23-.68.55-.93,1.02-.14-.53.37-1.18.93-1.02h0Z"/>
        </g>
        <circle class="cls-14" cx="284.82" cy="34.13" r="1.18"/>
      </g>
      <g>
        <circle class="cls-12" cx="194.51" cy="44.67" r="1.18"/>
        <path class="cls-2" d="M195.69,44.67c0,.65-.53,1.18-1.18,1.18-.45,0-.84-.25-1.03-.62.19.13.42.2.66.2.65,0,1.18-.53,1.18-1.18,0-.2-.05-.39-.14-.55.31.21.51.56.51.97Z"/>
        <g class="cls-1">
          <path class="cls-11" d="M194.51,43.75c-.48.23-.68.55-.93,1.02-.14-.53.37-1.18.93-1.02h0Z"/>
        </g>
        <circle class="cls-14" cx="194.51" cy="44.67" r="1.18"/>
      </g>
      <g>
        <circle class="cls-12" cx="270.32" cy="38.4" r="1.18"/>
        <path class="cls-2" d="M271.5,38.41c0,.65-.53,1.18-1.18,1.18-.45,0-.84-.25-1.03-.62.19.13.42.2.66.2.65,0,1.18-.53,1.18-1.18,0-.2-.05-.39-.14-.55.31.21.51.56.51.97Z"/>
        <g class="cls-1">
          <path class="cls-11" d="M270.32,37.49c-.48.23-.68.55-.93,1.02-.14-.53.37-1.18.93-1.02h0Z"/>
        </g>
        <circle class="cls-14" cx="270.32" cy="38.4" r="1.18"/>
      </g>
      <g>
        <circle class="cls-12" cx="237.32" cy="19.41" r="1.18"/>
        <path class="cls-2" d="M238.5,19.41c0,.65-.53,1.18-1.18,1.18-.45,0-.84-.25-1.03-.62.19.13.42.2.66.2.65,0,1.18-.53,1.18-1.18,0-.2-.05-.39-.14-.55.31.21.51.56.51.97Z"/>
        <g class="cls-1">
          <path class="cls-11" d="M237.32,18.5c-.48.23-.68.55-.93,1.02-.14-.53.37-1.18.93-1.02h0Z"/>
        </g>
        <circle class="cls-14" cx="237.32" cy="19.41" r="1.18"/>
      </g>
      <g>
        <circle class="cls-12" cx="237.62" cy="15.85" r="1.18"/>
        <path class="cls-2" d="M238.8,15.85c0,.65-.53,1.18-1.18,1.18-.45,0-.84-.25-1.03-.62.19.13.42.2.66.2.65,0,1.18-.53,1.18-1.18,0-.2-.05-.39-.14-.55.31.21.51.56.51.97Z"/>
        <g class="cls-1">
          <path class="cls-11" d="M237.62,14.93c-.48.23-.68.55-.93,1.02-.14-.53.37-1.18.93-1.02h0Z"/>
        </g>
        <circle class="cls-14" cx="237.62" cy="15.85" r="1.18"/>
      </g>
      <g>
        <circle class="cls-12" cx="232.93" cy="19.09" r="1.18"/>
        <path class="cls-2" d="M234.11,19.1c0,.65-.53,1.18-1.18,1.18-.45,0-.84-.25-1.03-.62.19.13.42.2.66.2.65,0,1.18-.53,1.18-1.18,0-.2-.05-.39-.14-.55.31.21.51.56.51.97Z"/>
        <g class="cls-1">
          <path class="cls-11" d="M232.93,18.18c-.48.23-.68.55-.93,1.02-.14-.53.37-1.18.93-1.02h0Z"/>
        </g>
        <circle class="cls-14" cx="232.93" cy="19.09" r="1.18"/>
      </g>
      <g>
        <line class="cls-15" x1="218.02" y1="6.02" x2="218.86" y2="8.43"/>
        <polygon class="cls-25" points="217.31 8.51 219.57 10.46 220.13 7.52 217.31 8.51"/>
      </g>
      <g>
        <line class="cls-15" x1="216.73" y1="53.26" x2="219.02" y2="53.47"/>
        <polygon class="cls-25" points="218.45 54.92 221.17 53.66 218.72 51.94 218.45 54.92"/>
      </g>
      <g>
        <line class="cls-15" x1="250.61" y1="50.81" x2="246.91" y2="52.48"/>
        <polygon class="cls-25" points="246.7 50.93 244.95 53.36 247.92 53.66 246.7 50.93"/>
      </g>
      <g>
        <line class="cls-15" x1="284.11" y1="32.58" x2="282.66" y2="30.07"/>
        <polygon class="cls-25" points="284.18 29.7 281.59 28.2 281.59 31.19 284.18 29.7"/>
      </g>
    </g>
    <g id="Water">
      <g>
        <g>
          <circle class="cls-12" cx="251.81" cy="49.52" r="1.18"/>
          <path class="cls-2" d="M252.44,48.53c.55.35.71,1.08.36,1.63-.24.38-.66.57-1.08.54.21-.09.39-.25.52-.45.35-.55.19-1.28-.36-1.63-.17-.11-.36-.17-.54-.18.34-.15.75-.13,1.09.09Z"/>
          <g class="cls-1">
            <path class="cls-11" d="M251.04,49.03c-.06.53.1.87.36,1.33-.52-.17-.79-.94-.36-1.33h0Z"/>
          </g>
          <circle class="cls-14" cx="251.81" cy="49.52" r="1.18"/>
        </g>
        <g>
          <circle class="cls-12" cx="252.5" cy="46.33" r="1.18"/>
          <path class="cls-2" d="M253.14,45.34c.55.35.71,1.08.36,1.63-.24.38-.66.57-1.08.54.21-.09.39-.25.52-.45.35-.55.19-1.28-.36-1.63-.17-.11-.36-.17-.54-.18.34-.15.75-.13,1.09.09Z"/>
          <g class="cls-1">
            <path class="cls-11" d="M251.73,45.84c-.06.53.1.87.36,1.33-.52-.17-.79-.94-.36-1.33h0Z"/>
          </g>
          <circle class="cls-14" cx="252.5" cy="46.33" r="1.18"/>
        </g>
        <circle class="cls-20" cx="248.57" cy="47.13" r="2.31"/>
        <path class="cls-3" d="M249.82,45.19c1.07.68,1.39,2.12.71,3.19-.47.74-1.3,1.13-2.11,1.05.41-.18.77-.48,1.02-.88.68-1.07.37-2.51-.71-3.19-.33-.21-.7-.33-1.06-.35.67-.29,1.46-.25,2.14.18Z"/>
        <g class="cls-1">
          <path class="cls-11" d="M247.06,46.17c-.11,1.06.22,1.7.71,2.61-1.04-.32-1.57-1.85-.71-2.61h0Z"/>
        </g>
        <circle class="cls-14" cx="248.57" cy="47.13" r="2.31"/>
        <line class="cls-14" x1="250.81" y1="48.89" x2="250.4" y2="48.54"/>
        <line class="cls-14" x1="251.36" y1="46.61" x2="250.84" y2="46.73"/>
      </g>
      <g>
        <g>
          <circle class="cls-12" cx="253.07" cy="36.27" r="1.18"/>
          <path class="cls-2" d="M254.09,35.68c.33.56.14,1.29-.42,1.61-.39.23-.85.21-1.2-.02.23.02.46-.04.67-.16.56-.33.75-1.05.42-1.61-.1-.17-.24-.31-.4-.4.37.03.72.23.93.58Z"/>
          <g class="cls-1">
            <path class="cls-11" d="M252.61,35.48c-.3.44-.31.82-.29,1.35-.39-.39-.27-1.2.29-1.35h0Z"/>
          </g>
          <circle class="cls-14" cx="253.07" cy="36.27" r="1.18"/>
        </g>
        <g>
          <circle class="cls-12" cx="255.15" cy="33.76" r="1.18"/>
          <path class="cls-2" d="M256.17,33.17c.33.56.14,1.29-.42,1.61-.39.23-.85.21-1.2-.02.23.02.46-.04.67-.16.56-.33.75-1.05.42-1.61-.1-.17-.24-.31-.4-.4.37.03.72.23.93.58Z"/>
          <g class="cls-1">
            <path class="cls-11" d="M254.69,32.97c-.3.44-.31.82-.29,1.35-.39-.39-.27-1.2.29-1.35h0Z"/>
          </g>
          <circle class="cls-14" cx="255.15" cy="33.76" r="1.18"/>
        </g>
        <circle class="cls-20" cx="251.29" cy="32.67" r="2.31"/>
        <path class="cls-3" d="M253.29,31.51c.64,1.1.27,2.52-.83,3.16-.76.44-1.67.41-2.36-.03.45.03.91-.08,1.31-.31,1.1-.64,1.47-2.06.83-3.16-.2-.34-.47-.61-.78-.79.73.05,1.42.44,1.82,1.14Z"/>
        <g class="cls-1">
          <path class="cls-11" d="M250.38,31.12c-.58.89-.59,1.61-.56,2.65-.77-.76-.54-2.36.56-2.65h0Z"/>
        </g>
        <circle class="cls-14" cx="251.29" cy="32.67" r="2.31"/>
        <line class="cls-14" x1="252.47" y1="35.25" x2="252.27" y2="34.75"/>
        <line class="cls-14" x1="254.01" y1="33.49" x2="253.49" y2="33.35"/>
      </g>
      <g>
        <g>
          <circle class="cls-12" cx="262.54" cy="26.47" r="1.18"/>
          <path class="cls-2" d="M263.66,26.84c-.2.62-.87.96-1.49.76-.43-.14-.72-.5-.79-.91.14.18.34.32.57.39.62.2,1.29-.14,1.49-.76.06-.19.07-.39.04-.57.23.3.31.69.18,1.08Z"/>
          <g class="cls-1">
            <path class="cls-11" d="M262.83,25.61c-.53.07-.82.31-1.2.68.03-.55.72-1,1.2-.68h0Z"/>
          </g>
          <circle class="cls-14" cx="262.54" cy="26.47" r="1.18"/>
        </g>
        <g>
          <circle class="cls-12" cx="265.8" cy="26.35" r="1.18"/>
          <path class="cls-2" d="M266.92,26.72c-.2.62-.87.96-1.49.76-.43-.14-.72-.5-.79-.91.14.18.34.32.57.39.62.2,1.29-.14,1.49-.76.06-.19.07-.39.04-.57.23.3.31.69.18,1.08Z"/>
          <g class="cls-1">
            <path class="cls-11" d="M266.09,25.49c-.53.07-.82.31-1.2.68.03-.55.72-1,1.2-.68h0Z"/>
          </g>
          <circle class="cls-14" cx="265.8" cy="26.35" r="1.18"/>
        </g>
        <circle class="cls-20" cx="264.05" cy="22.74" r="2.31"/>
        <path class="cls-3" d="M266.24,23.47c-.39,1.21-1.7,1.88-2.91,1.48-.84-.27-1.41-.98-1.54-1.78.27.36.66.63,1.11.77,1.21.39,2.52-.27,2.91-1.48.12-.37.14-.76.07-1.11.45.58.61,1.35.36,2.12Z"/>
        <g class="cls-1">
          <path class="cls-11" d="M264.6,21.04c-1.05.16-1.59.63-2.35,1.34.05-1.08,1.4-1.98,2.35-1.34h0Z"/>
        </g>
        <circle class="cls-14" cx="264.05" cy="22.74" r="2.31"/>
        <line class="cls-14" x1="262.91" y1="25.35" x2="263.15" y2="24.87"/>
        <line class="cls-14" x1="265.25" y1="25.32" x2="265" y2="24.84"/>
      </g>
      <g>
        <g>
          <circle class="cls-12" cx="252.56" cy="10.86" r="1.18"/>
          <path class="cls-2" d="M253.74,10.87c0,.65-.53,1.18-1.18,1.18-.45,0-.84-.25-1.03-.62.19.13.42.2.66.2.65,0,1.18-.53,1.18-1.18,0-.2-.05-.39-.14-.55.31.21.51.56.51.97Z"/>
          <g class="cls-1">
            <path class="cls-11" d="M252.56,9.95c-.48.23-.68.55-.93,1.02-.14-.53.37-1.18.93-1.02h0Z"/>
          </g>
          <circle class="cls-14" cx="252.56" cy="10.86" r="1.18"/>
        </g>
        <g>
          <circle class="cls-12" cx="255.63" cy="9.74" r="1.18"/>
          <path class="cls-2" d="M256.81,9.74c0,.65-.53,1.18-1.18,1.18-.45,0-.84-.25-1.03-.62.19.13.42.2.66.2.65,0,1.18-.53,1.18-1.18,0-.2-.05-.39-.14-.55.31.21.51.56.51.97Z"/>
          <g class="cls-1">
            <path class="cls-11" d="M255.63,8.82c-.48.23-.68.55-.93,1.02-.14-.53.37-1.18.93-1.02h0Z"/>
          </g>
          <circle class="cls-14" cx="255.63" cy="9.74" r="1.18"/>
        </g>
        <g>
          <circle class="cls-12" cx="256.88" cy="6.85" r="1.18"/>
          <path class="cls-2" d="M258.06,6.85c0,.65-.53,1.18-1.18,1.18-.45,0-.84-.25-1.03-.62.19.13.42.2.66.2.65,0,1.18-.53,1.18-1.18,0-.2-.05-.39-.14-.55.31.21.51.56.51.97Z"/>
          <g class="cls-1">
            <path class="cls-11" d="M256.88,5.93c-.48.23-.68.55-.93,1.02-.14-.53.37-1.18.93-1.02h0Z"/>
          </g>
          <circle class="cls-14" cx="256.88" cy="6.85" r="1.18"/>
        </g>
        <circle class="cls-20" cx="252.84" cy="6.85" r="2.31"/>
        <path class="cls-3" d="M255.15,6.86c0,1.27-1.04,2.31-2.31,2.31-.88,0-1.65-.49-2.02-1.21.37.25.82.39,1.29.39,1.27,0,2.31-1.04,2.31-2.31,0-.39-.1-.76-.27-1.08.61.41,1,1.1,1,1.9Z"/>
        <g class="cls-1">
          <path class="cls-11" d="M252.84,5.06c-.95.48-1.32,1.09-1.82,2-.29-1.05.72-2.31,1.82-2h0Z"/>
        </g>
        <circle class="cls-14" cx="252.84" cy="6.85" r="2.31"/>
        <line class="cls-14" x1="252.56" y1="9.68" x2="252.64" y2="9.15"/>
        <line class="cls-14" x1="254.77" y1="8.93" x2="254.39" y2="8.55"/>
        <line class="cls-14" x1="255.7" y1="6.85" x2="255.16" y2="6.85"/>
      </g>
      <g>
        <g>
          <circle class="cls-12" cx="238.84" cy="36.71" r="1.18"/>
          <path class="cls-2" d="M240.02,36.71c0,.65-.53,1.18-1.18,1.18-.45,0-.84-.25-1.03-.62.19.13.42.2.66.2.65,0,1.18-.53,1.18-1.18,0-.2-.05-.39-.14-.55.31.21.51.56.51.97Z"/>
          <g class="cls-1">
            <path class="cls-11" d="M238.84,35.79c-.48.23-.68.55-.93,1.02-.14-.53.37-1.18.93-1.02h0Z"/>
          </g>
          <circle class="cls-14" cx="238.84" cy="36.71" r="1.18"/>
        </g>
        <g>
          <circle class="cls-12" cx="241.9" cy="35.58" r="1.18"/>
          <path class="cls-2" d="M243.08,35.58c0,.65-.53,1.18-1.18,1.18-.45,0-.84-.25-1.03-.62.19.13.42.2.66.2.65,0,1.18-.53,1.18-1.18,0-.2-.05-.39-.14-.55.31.21.51.56.51.97Z"/>
          <g class="cls-1">
            <path class="cls-11" d="M241.9,34.67c-.48.23-.68.55-.93,1.02-.14-.53.37-1.18.93-1.02h0Z"/>
          </g>
          <circle class="cls-14" cx="241.9" cy="35.58" r="1.18"/>
        </g>
        <g>
          <circle class="cls-12" cx="243.16" cy="32.69" r="1.18"/>
          <path class="cls-2" d="M244.34,32.7c0,.65-.53,1.18-1.18,1.18-.45,0-.84-.25-1.03-.62.19.13.42.2.66.2.65,0,1.18-.53,1.18-1.18,0-.2-.05-.39-.14-.55.31.21.51.56.51.97Z"/>
          <g class="cls-1">
            <path class="cls-11" d="M243.16,31.78c-.48.23-.68.55-.93,1.02-.14-.53.37-1.18.93-1.02h0Z"/>
          </g>
          <circle class="cls-14" cx="243.16" cy="32.69" r="1.18"/>
        </g>
        <circle class="cls-20" cx="239.12" cy="32.69" r="2.31"/>
        <path class="cls-3" d="M241.43,32.7c0,1.27-1.04,2.31-2.31,2.31-.88,0-1.65-.49-2.02-1.21.37.25.82.39,1.29.39,1.27,0,2.31-1.04,2.31-2.31,0-.39-.1-.76-.27-1.08.61.41,1,1.1,1,1.9Z"/>
        <g class="cls-1">
          <path class="cls-11" d="M239.12,30.9c-.95.48-1.32,1.09-1.82,2-.29-1.05.72-2.31,1.82-2h0Z"/>
        </g>
        <circle class="cls-14" cx="239.12" cy="32.69" r="2.31"/>
        <line class="cls-14" x1="238.84" y1="35.53" x2="238.91" y2="34.99"/>
        <line class="cls-14" x1="241.05" y1="34.77" x2="240.67" y2="34.39"/>
        <line class="cls-14" x1="241.98" y1="32.69" x2="241.44" y2="32.69"/>
      </g>
      <g>
        <g>
          <circle class="cls-12" cx="276.96" cy="26.02" r="1.18"/>
          <path class="cls-2" d="M277.91,26.73c-.39.52-1.13.63-1.65.24-.36-.27-.52-.7-.46-1.11.07.22.22.41.41.55.52.39,1.26.28,1.65-.24.12-.16.19-.34.22-.52.12.35.08.75-.17,1.08Z"/>
          <g class="cls-1">
            <path class="cls-11" d="M277.51,25.29c-.52-.1-.87.04-1.36.27.2-.51,1-.72,1.36-.27h0Z"/>
          </g>
          <circle class="cls-14" cx="276.96" cy="26.02" r="1.18"/>
        </g>
        <g>
          <circle class="cls-12" cx="280.09" cy="26.95" r="1.18"/>
          <path class="cls-2" d="M281.04,27.65c-.39.52-1.13.63-1.65.24-.36-.27-.52-.7-.46-1.11.07.22.22.41.41.55.52.39,1.26.28,1.65-.24.12-.16.19-.34.22-.52.12.35.08.75-.17,1.08Z"/>
          <g class="cls-1">
            <path class="cls-11" d="M280.64,26.21c-.52-.1-.87.04-1.36.27.2-.51,1-.72,1.36-.27h0Z"/>
          </g>
          <circle class="cls-14" cx="280.09" cy="26.95" r="1.18"/>
        </g>
        <circle class="cls-20" cx="279.58" cy="22.97" r="2.31"/>
        <path class="cls-3" d="M281.43,24.35c-.76,1.02-2.21,1.24-3.23.48-.71-.53-1.03-1.37-.89-2.18.15.43.43.81.8,1.09,1.02.76,2.47.55,3.23-.48.23-.31.38-.67.42-1.03.24.69.15,1.48-.33,2.12Z"/>
        <g class="cls-1">
          <path class="cls-11" d="M280.65,21.53c-1.05-.19-1.71.09-2.66.52.39-1.01,1.96-1.43,2.66-.52h0Z"/>
        </g>
        <circle class="cls-14" cx="279.58" cy="22.97" r="2.31"/>
        <line class="cls-14" x1="277.67" y1="25.07" x2="278.05" y2="24.69"/>
        <line class="cls-14" x1="279.89" y1="25.79" x2="279.81" y2="25.26"/>
      </g>
      <g>
        <g>
          <circle class="cls-12" cx="213.52" cy="41.34" r="1.18"/>
          <path class="cls-2" d="M214.59,40.84c.28.59.03,1.29-.56,1.57-.41.19-.87.13-1.2-.12.23.04.47,0,.68-.1.59-.28.84-.98.56-1.57-.09-.18-.21-.33-.36-.44.37.06.7.29.88.66Z"/>
          <g class="cls-1">
            <path class="cls-11" d="M213.13,40.51c-.33.41-.38.79-.4,1.32-.35-.42-.17-1.22.4-1.32h0Z"/>
          </g>
          <circle class="cls-14" cx="213.52" cy="41.34" r="1.18"/>
        </g>
        <g>
          <circle class="cls-12" cx="215.81" cy="39.01" r="1.18"/>
          <path class="cls-2" d="M216.88,38.51c.28.59.03,1.29-.56,1.57-.41.19-.87.13-1.2-.12.23.04.47,0,.68-.1.59-.28.84-.98.56-1.57-.09-.18-.21-.33-.36-.44.37.06.7.29.88.66Z"/>
          <g class="cls-1">
            <path class="cls-11" d="M215.42,38.18c-.33.41-.38.79-.4,1.32-.35-.42-.17-1.22.4-1.32h0Z"/>
          </g>
          <circle class="cls-14" cx="215.81" cy="39.01" r="1.18"/>
        </g>
        <circle class="cls-20" cx="212.06" cy="37.59" r="2.31"/>
        <path class="cls-3" d="M214.15,36.61c.54,1.15.05,2.53-1.1,3.08-.8.38-1.7.26-2.34-.24.45.07.91,0,1.34-.2,1.15-.54,1.65-1.93,1.1-3.08-.17-.35-.42-.65-.71-.86.72.11,1.37.56,1.72,1.29Z"/>
        <g class="cls-1">
          <path class="cls-11" d="M211.29,35.98c-.66.84-.72,1.55-.79,2.59-.71-.82-.34-2.4.79-2.59h0Z"/>
        </g>
        <circle class="cls-14" cx="212.06" cy="37.59" r="2.31"/>
        <line class="cls-14" x1="213.02" y1="40.27" x2="212.86" y2="39.76"/>
        <line class="cls-14" x1="214.7" y1="38.64" x2="214.19" y2="38.46"/>
      </g>
      <g>
        <g>
          <circle class="cls-12" cx="215.2" cy="52.82" r="1.18"/>
          <path class="cls-2" d="M215.83,51.82c.55.34.72,1.08.37,1.63-.24.38-.66.58-1.07.54.21-.09.39-.25.52-.45.34-.55.18-1.28-.37-1.63-.17-.11-.36-.16-.54-.17.34-.15.75-.14,1.09.08Z"/>
          <g class="cls-1">
            <path class="cls-11" d="M214.43,52.33c-.06.53.11.87.37,1.33-.52-.16-.8-.94-.37-1.33h0Z"/>
          </g>
          <circle class="cls-14" cx="215.2" cy="52.82" r="1.18"/>
        </g>
        <g>
          <circle class="cls-12" cx="215.87" cy="49.62" r="1.18"/>
          <path class="cls-2" d="M216.5,48.62c.55.34.72,1.08.37,1.63-.24.38-.66.58-1.07.54.21-.09.39-.25.52-.45.34-.55.18-1.28-.37-1.63-.17-.11-.36-.16-.54-.17.34-.15.75-.14,1.09.08Z"/>
          <g class="cls-1">
            <path class="cls-11" d="M215.1,49.14c-.06.53.11.87.37,1.33-.52-.16-.8-.94-.37-1.33h0Z"/>
          </g>
          <circle class="cls-14" cx="215.87" cy="49.62" r="1.18"/>
        </g>
        <circle class="cls-20" cx="211.94" cy="50.45" r="2.31"/>
        <path class="cls-3" d="M213.18,48.5c1.08.68,1.41,2.11.73,3.19-.47.75-1.29,1.13-2.1,1.07.41-.18.77-.49,1.02-.89.68-1.08.35-2.51-.73-3.19-.33-.21-.7-.32-1.06-.34.67-.3,1.46-.26,2.14.16Z"/>
        <g class="cls-1">
          <path class="cls-11" d="M210.43,49.5c-.1,1.06.23,1.7.73,2.61-1.04-.31-1.58-1.84-.73-2.61h0Z"/>
        </g>
        <circle class="cls-14" cx="211.94" cy="50.45" r="2.31"/>
        <line class="cls-14" x1="214.2" y1="52.19" x2="213.79" y2="51.84"/>
        <line class="cls-14" x1="214.73" y1="49.91" x2="214.21" y2="50.03"/>
      </g>
      <g>
        <g>
          <circle class="cls-12" cx="217.46" cy="29.55" r="1.18"/>
          <path class="cls-2" d="M218.17,28.61c.52.39.63,1.13.24,1.65-.27.36-.7.52-1.11.45.22-.07.41-.22.56-.41.39-.52.28-1.26-.24-1.65-.16-.12-.34-.19-.52-.22.35-.12.75-.07,1.08.17Z"/>
          <g class="cls-1">
            <path class="cls-11" d="M216.73,29.01c-.1.52.04.87.26,1.36-.51-.21-.72-1-.26-1.36h0Z"/>
          </g>
          <circle class="cls-14" cx="217.46" cy="29.55" r="1.18"/>
        </g>
        <g>
          <circle class="cls-12" cx="218.39" cy="26.42" r="1.18"/>
          <path class="cls-2" d="M219.1,25.48c.52.39.63,1.13.24,1.65-.27.36-.7.52-1.11.45.22-.07.41-.22.56-.41.39-.52.28-1.26-.24-1.65-.16-.12-.34-.19-.52-.22.35-.12.75-.07,1.08.17Z"/>
          <g class="cls-1">
            <path class="cls-11" d="M217.66,25.88c-.1.52.04.87.26,1.36-.51-.21-.72-1-.26-1.36h0Z"/>
          </g>
          <circle class="cls-14" cx="218.39" cy="26.42" r="1.18"/>
        </g>
        <circle class="cls-20" cx="214.41" cy="26.93" r="2.31"/>
        <path class="cls-3" d="M215.8,25.08c1.02.76,1.23,2.22.47,3.24-.53.71-1.38,1.03-2.18.89.43-.15.81-.42,1.09-.8.76-1.02.55-2.47-.47-3.24-.31-.23-.67-.38-1.03-.42.69-.24,1.48-.14,2.12.34Z"/>
        <g class="cls-1">
          <path class="cls-11" d="M212.98,25.86c-.19,1.05.09,1.71.52,2.66-1.01-.4-1.42-1.96-.52-2.66h0Z"/>
        </g>
        <circle class="cls-14" cx="214.41" cy="26.93" r="2.31"/>
        <line class="cls-14" x1="216.52" y1="28.85" x2="216.13" y2="28.47"/>
        <line class="cls-14" x1="217.23" y1="26.62" x2="216.7" y2="26.7"/>
      </g>
      <g>
        <g>
          <circle class="cls-12" cx="219.9" cy="15.68" r="1.18"/>
          <path class="cls-2" d="M220.3,14.57c.61.22.94.89.72,1.51-.15.42-.52.71-.93.76.19-.14.33-.33.41-.56.22-.61-.11-1.29-.72-1.51-.19-.07-.38-.08-.57-.05.3-.22.7-.29,1.08-.16Z"/>
          <g class="cls-1">
            <path class="cls-11" d="M219.04,15.38c.06.53.29.82.65,1.22-.55-.05-.99-.74-.65-1.22h0Z"/>
          </g>
          <circle class="cls-14" cx="219.9" cy="15.68" r="1.18"/>
        </g>
        <g>
          <circle class="cls-12" cx="219.86" cy="12.42" r="1.18"/>
          <path class="cls-2" d="M220.26,11.31c.61.22.94.89.72,1.51-.15.42-.52.71-.93.76.19-.14.33-.33.41-.56.22-.61-.11-1.29-.72-1.51-.19-.07-.38-.08-.57-.05.3-.22.7-.29,1.08-.16Z"/>
          <g class="cls-1">
            <path class="cls-11" d="M219,12.12c.06.53.29.82.65,1.22-.55-.05-.99-.74-.65-1.22h0Z"/>
          </g>
          <circle class="cls-14" cx="219.86" cy="12.42" r="1.18"/>
        </g>
        <circle class="cls-20" cx="216.21" cy="14.09" r="2.31"/>
        <path class="cls-3" d="M216.99,11.91c1.2.42,1.83,1.75,1.41,2.95-.29.83-1.01,1.39-1.82,1.5.36-.27.64-.65.8-1.09.42-1.2-.21-2.53-1.41-2.95-.37-.13-.75-.16-1.11-.1.59-.44,1.37-.58,2.12-.31Z"/>
        <g class="cls-1">
          <path class="cls-11" d="M214.53,13.49c.13,1.06.59,1.61,1.28,2.38-1.08-.08-1.94-1.45-1.28-2.38h0Z"/>
        </g>
        <circle class="cls-14" cx="216.21" cy="14.09" r="2.31"/>
        <line class="cls-14" x1="218.79" y1="15.29" x2="218.31" y2="15.04"/>
        <line class="cls-14" x1="218.82" y1="12.95" x2="218.33" y2="13.19"/>
      </g>
      <circle class="cls-10" cx="195.36" cy="42.52" r="6.62"/>
      <circle class="cls-10" cx="234.7" cy="17.44" r="6.62"/>
      <circle class="cls-10" cx="269.72" cy="41.5" r="6.62"/>
    </g>
    <g id="Silica-Particles">
      <g>
        <circle class="cls-8" cx="27.94" cy="15.45" r="11.28"/>
        <circle class="cls-8" cx="27.94" cy="15.45" r="11.28"/>
        <path class="cls-7" d="M39.28,15.45c0,6.23-5.05,11.28-11.28,11.28-4.18,0-7.83-2.28-9.78-5.67,2,1.78,4.63,2.86,7.51,2.86,6.22,0,11.27-5.05,11.27-11.28,0-2.04-.54-3.95-1.49-5.6,2.31,2.06,3.77,5.06,3.77,8.41Z"/>
        <g class="cls-26">
          <path class="cls-11" d="M27.33,5.5c-4.1,1.99-6.73,5-8.23,9.09-.41.93-.67,1.94-1.09,2.9-1.45-5.69,3.12-12.59,9.31-11.99h0Z"/>
        </g>
        <circle class="cls-16" cx="27.94" cy="15.45" r="11.28"/>
      </g>
      <g>
        <circle class="cls-8" cx="60.3" cy="45.67" r="8.52"/>
        <circle class="cls-8" cx="60.3" cy="45.67" r="8.52"/>
        <path class="cls-7" d="M68.87,45.67c0,4.71-3.82,8.53-8.53,8.53-3.16,0-5.92-1.72-7.39-4.29,1.51,1.35,3.5,2.16,5.68,2.16,4.7,0,8.52-3.82,8.52-8.53,0-1.54-.41-2.99-1.13-4.23,1.75,1.56,2.85,3.82,2.85,6.36Z"/>
        <g class="cls-26">
          <path class="cls-11" d="M59.84,38.15c-3.82,2.15-5.47,5.29-7.04,9.06-1.51-4.33,2.26-9.91,7.04-9.06h0Z"/>
        </g>
        <circle class="cls-16" cx="60.3" cy="45.67" r="8.52"/>
      </g>
      <g>
        <circle class="cls-8" cx="101.02" cy="11.48" r="6.5"/>
        <circle class="cls-8" cx="101.02" cy="11.48" r="6.5"/>
        <path class="cls-7" d="M107.56,11.48c0,3.59-2.91,6.5-6.5,6.5-2.41,0-4.51-1.31-5.64-3.27,1.15,1.03,2.67,1.65,4.33,1.65,3.59,0,6.5-2.91,6.5-6.5,0-1.18-.31-2.28-.86-3.23,1.33,1.19,2.17,2.92,2.17,4.85Z"/>
        <g class="cls-26">
          <path class="cls-11" d="M100.67,5.74c-2.78,1.98-3.85,4.14-5.37,6.91-1.55-3.31,1.64-7.94,5.37-6.91h0Z"/>
        </g>
        <circle class="cls-16" cx="101.02" cy="11.48" r="6.5"/>
      </g>
    </g>
    <g id="Circle_Outline">
      <g>
        <path class="cls-16" d="M24.94,34.98c0,.44-2.27.44-2.27.88s2.27.44,2.27.88-2.27.44-2.27.88,2.27.44,2.27.88"/>
        <circle class="cls-23" cx="24.33" cy="33.7" r="1.11"/>
        <path class="cls-9" d="M25.44,33.7c0,.61-.5,1.11-1.11,1.11-.46,0-.86-.28-1.03-.68.19.14.42.23.68.23.61,0,1.11-.5,1.11-1.11,0-.15-.03-.3-.09-.43.27.2.43.52.43.88Z"/>
        <g class="cls-26">
          <path class="cls-11" d="M24.43,33.01c-.22.28-.26.39-.31.44-.06.04-.17.07-.49.24-.28-.22-.25-.59,0-.81.25-.21.63-.2.8.12,0,0-.17-.32,0,0Z"/>
        </g>
        <circle class="cls-16" cx="24.33" cy="33.7" r="1.11"/>
        <path class="cls-16" d="M21.03,35.7c.22.38-1.74,1.52-1.52,1.9s2.18-.75,2.4-.37-1.74,1.52-1.52,1.9,2.18-.75,2.4-.37"/>
        <circle class="cls-23" cx="19.86" cy="34.9" r="1.11"/>
        <path class="cls-9" d="M20.82,34.35c.31.53.13,1.21-.4,1.52-.4.23-.88.19-1.23-.07.23.03.48-.01.7-.14.53-.31.71-.99.41-1.52-.08-.13-.18-.24-.29-.33.33.04.64.23.82.54Z"/>
        <g class="cls-26">
          <path class="cls-11" d="M19.6,34.26c-.08.73.06.37-.35,1-.81-.13-.37-1.4.35-1h0Z"/>
        </g>
        <circle class="cls-16" cx="19.86" cy="34.9" r="1.11"/>
        <path class="cls-16" d="M18,38.29c.38.22-.75,2.18-.37,2.4s1.51-1.75,1.89-1.53-.75,2.19-.37,2.41,1.51-1.75,1.9-1.53"/>
        <circle class="cls-23" cx="16.59" cy="38.18" r="1.11"/>
        <path class="cls-9" d="M17.14,37.22c.53.31.72.98.41,1.52-.23.4-.67.6-1.1.55.22-.09.41-.25.54-.47.31-.53.12-1.21-.41-1.52-.13-.08-.27-.12-.42-.14.31-.13.67-.12.98.06Z"/>
        <g class="cls-26">
          <path class="cls-11" d="M16.04,37.75c.29.68.23.29.2,1.03-.76.29-1.02-1.03-.2-1.03h0Z"/>
        </g>
        <circle class="cls-16" cx="16.59" cy="38.18" r="1.11"/>
        <path class="cls-16" d="M16.67,42.04c.44,0,.44,2.27.88,2.27s.44-2.27.87-2.27.45,2.27.89,2.27.44-2.27.88-2.27"/>
        <circle class="cls-23" cx="15.4" cy="42.65" r="1.11"/>
        <path class="cls-9" d="M15.39,41.54c.61,0,1.11.49,1.12,1.11,0,.46-.28.86-.68,1.03.14-.19.23-.42.23-.68,0-.61-.5-1.11-1.12-1.11-.15,0-.3.03-.43.09.2-.27.52-.43.88-.44Z"/>
        <g class="cls-26">
          <path class="cls-11" d="M14.71,42.56c.28.22.39.26.44.31.04.06.07.17.25.49-.22.28-.59.25-.81,0-.21-.25-.2-.63.12-.8,0,0-.32.17,0,0Z"/>
        </g>
        <circle class="cls-16" cx="15.4" cy="42.65" r="1.11"/>
        <path class="cls-16" d="M17.4,45.95c.38-.22,1.52,1.74,1.9,1.52s-.76-2.18-.38-2.4,1.52,1.74,1.9,1.52-.76-2.18-.38-2.4"/>
        <circle class="cls-23" cx="16.61" cy="47.12" r="1.11"/>
        <path class="cls-9" d="M16.05,46.16c.53-.31,1.21-.13,1.52.4.23.4.19.88-.07,1.23.03-.23-.01-.48-.14-.7-.31-.53-.99-.71-1.52-.4-.13.08-.24.18-.33.29.04-.33.23-.64.54-.82Z"/>
        <g class="cls-26">
          <path class="cls-11" d="M15.96,47.39c.73.08.37-.06,1,.34-.12.81-1.4.37-1-.34h0Z"/>
        </g>
        <circle class="cls-16" cx="16.61" cy="47.12" r="1.11"/>
        <path class="cls-16" d="M19.99,48.97c.22-.38,2.19.75,2.4.37s-1.75-1.51-1.53-1.89,2.19.75,2.41.36-1.75-1.51-1.53-1.89"/>
        <circle class="cls-23" cx="19.89" cy="50.39" r="1.11"/>
        <path class="cls-9" d="M18.92,49.84c.31-.53.98-.72,1.52-.41.4.23.6.67.55,1.1-.09-.22-.25-.41-.47-.54-.53-.31-1.21-.12-1.52.41-.08.13-.12.28-.14.42-.13-.3-.12-.67.06-.98Z"/>
        <g class="cls-26">
          <path class="cls-11" d="M19.46,50.94c.67-.29.29-.23,1.03-.2.3.76-1.03,1.02-1.03.2h0Z"/>
        </g>
        <circle class="cls-16" cx="19.89" cy="50.39" r="1.11"/>
        <path class="cls-16" d="M23.75,50.3c0-.44,2.27-.45,2.26-.89s-2.27-.43-2.27-.87,2.27-.45,2.26-.89-2.27-.43-2.27-.87"/>
        <circle class="cls-23" cx="24.36" cy="51.57" r="1.11"/>
        <path class="cls-9" d="M23.25,51.58c0-.61.49-1.11,1.11-1.12.46,0,.86.28,1.03.68-.19-.14-.42-.23-.68-.23-.61,0-1.11.5-1.11,1.12,0,.15.03.3.09.43-.27-.2-.44-.52-.44-.88Z"/>
        <g class="cls-26">
          <path class="cls-11" d="M24.27,52.26c.22-.28.26-.39.31-.45.06-.04.17-.07.49-.25.28.22.25.59,0,.81-.25.21-.63.2-.8-.12,0,0,.17.32,0,0Z"/>
        </g>
        <circle class="cls-16" cx="24.36" cy="51.57" r="1.11"/>
        <path class="cls-16" d="M27.66,49.56c-.22-.38,1.74-1.52,1.52-1.9s-2.18.76-2.4.38,1.74-1.52,1.51-1.9-2.18.76-2.4.38"/>
        <circle class="cls-23" cx="28.83" cy="50.36" r="1.11"/>
        <path class="cls-9" d="M27.87,50.91c-.31-.53-.13-1.21.4-1.52.4-.23.88-.19,1.23.07-.23-.03-.48.01-.7.14-.53.31-.71.99-.4,1.52.08.13.18.24.29.33-.33-.04-.64-.23-.82-.54Z"/>
        <g class="cls-26">
          <path class="cls-11" d="M29.1,51c.08-.73-.06-.37.34-1,.81.12.37,1.4-.34,1h0Z"/>
        </g>
        <circle class="cls-16" cx="28.83" cy="50.36" r="1.11"/>
        <path class="cls-16" d="M30.68,46.96c-.38-.22.74-2.19.36-2.4s-1.51,1.75-1.89,1.53.74-2.19.36-2.41-1.51,1.75-1.89,1.53"/>
        <circle class="cls-23" cx="32.09" cy="47.07" r="1.11"/>
        <path class="cls-9" d="M31.54,48.03c-.53-.3-.72-.98-.42-1.52.23-.4.67-.61,1.1-.55-.22.09-.41.25-.54.47-.3.53-.12,1.21.42,1.52.13.08.28.12.42.14-.3.13-.67.12-.98-.06Z"/>
        <g class="cls-26">
          <path class="cls-11" d="M32.64,47.49c-.3-.67-.24-.29-.2-1.03.76-.3,1.03,1.03.2,1.03h0Z"/>
        </g>
        <circle class="cls-16" cx="32.09" cy="47.07" r="1.11"/>
        <path class="cls-16" d="M31.99,43.21c-.44,0-.45-2.27-.89-2.26s-.43,2.27-.87,2.27-.45-2.27-.89-2.26-.43,2.27-.87,2.27"/>
        <circle class="cls-23" cx="33.26" cy="42.59" r="1.11"/>
        <path class="cls-9" d="M33.27,43.7c-.61,0-1.12-.49-1.12-1.1,0-.46.28-.86.67-1.03-.14.19-.23.43-.23.68,0,.61.51,1.11,1.12,1.11.15,0,.3-.03.43-.09-.2.27-.52.44-.88.44Z"/>
        <g class="cls-26">
          <path class="cls-11" d="M33.95,42.68c-.28-.22-.39-.26-.45-.31-.04-.06-.07-.17-.25-.49.22-.28.59-.25.81,0,.21.25.2.63-.12.8,0,0,.32-.17,0,0Z"/>
        </g>
        <circle class="cls-16" cx="33.26" cy="42.59" r="1.11"/>
        <path class="cls-16" d="M31.25,39.3c-.38.22-1.52-1.73-1.9-1.51s.77,2.18.39,2.4-1.53-1.73-1.91-1.51.77,2.18.39,2.4"/>
        <circle class="cls-23" cx="32.04" cy="38.12" r="1.11"/>
        <path class="cls-9" d="M32.6,39.08c-.53.31-1.21.13-1.52-.4-.23-.4-.19-.88.07-1.23-.03.23.02.48.14.7.31.53.99.71,1.52.4.13-.08.24-.18.33-.29-.04.33-.23.64-.54.82Z"/>
        <g class="cls-26">
          <path class="cls-11" d="M32.68,37.86c-.73-.08-.37.06-1-.34.12-.81,1.4-.38,1,.34h0Z"/>
        </g>
        <circle class="cls-16" cx="32.04" cy="38.12" r="1.11"/>
        <path class="cls-16" d="M28.65,36.28c-.22.38-2.19-.74-2.41-.36s1.75,1.5,1.54,1.88-2.19-.74-2.41-.35,1.75,1.5,1.54,1.89"/>
        <circle class="cls-23" cx="28.74" cy="34.87" r="1.11"/>
        <path class="cls-9" d="M29.71,35.42c-.3.53-.98.72-1.52.42-.4-.23-.61-.67-.56-1.1.09.22.25.41.47.53.53.3,1.21.12,1.52-.42.08-.13.12-.28.14-.42.13.3.12.67-.06.98Z"/>
        <g class="cls-26">
          <path class="cls-11" d="M29.17,34.32c-.67.3-.29.24-1.03.21-.3-.76,1.03-1.03,1.03-.21h0Z"/>
        </g>
        <circle class="cls-16" cx="28.74" cy="34.87" r="1.11"/>
      </g>
      <g>
        <path class="cls-16" d="M99.87,36.15c0,.44-2.27.44-2.27.88s2.27.44,2.27.88-2.27.44-2.27.88,2.27.44,2.27.88"/>
        <circle class="cls-23" cx="99.26" cy="34.87" r="1.11"/>
        <path class="cls-9" d="M100.37,34.87c0,.61-.5,1.11-1.11,1.11-.46,0-.86-.28-1.03-.68.19.14.42.23.68.23.61,0,1.11-.5,1.11-1.11,0-.15-.03-.3-.09-.43.27.2.43.52.43.88Z"/>
        <g class="cls-26">
          <path class="cls-11" d="M99.35,34.18c-.22.28-.26.39-.31.44-.06.04-.17.07-.49.24-.28-.22-.25-.59,0-.81.25-.21.63-.2.8.12,0,0-.17-.32,0,0Z"/>
        </g>
        <circle class="cls-16" cx="99.26" cy="34.87" r="1.11"/>
        <path class="cls-16" d="M95.96,36.87c.22.38-1.74,1.52-1.52,1.9s2.18-.75,2.4-.37-1.74,1.52-1.52,1.9,2.18-.75,2.4-.37"/>
        <circle class="cls-23" cx="94.79" cy="36.07" r="1.11"/>
        <path class="cls-9" d="M95.75,35.51c.31.53.13,1.21-.4,1.52-.4.23-.88.19-1.23-.07.23.03.48-.01.7-.14.53-.31.71-.99.41-1.52-.08-.13-.18-.24-.29-.33.33.04.64.23.82.54Z"/>
        <g class="cls-26">
          <path class="cls-11" d="M94.52,35.42c-.08.73.06.37-.35,1-.81-.13-.37-1.4.35-1h0Z"/>
        </g>
        <circle class="cls-16" cx="94.79" cy="36.07" r="1.11"/>
        <path class="cls-16" d="M92.93,39.45c.38.22-.75,2.18-.37,2.4s1.51-1.75,1.89-1.53-.75,2.19-.37,2.41,1.51-1.75,1.9-1.53"/>
        <circle class="cls-23" cx="91.51" cy="39.34" r="1.11"/>
        <path class="cls-9" d="M92.07,38.38c.53.31.72.98.41,1.52-.23.4-.67.6-1.1.55.22-.09.41-.25.54-.47.31-.53.12-1.21-.41-1.52-.13-.08-.27-.12-.42-.14.31-.13.67-.12.98.06Z"/>
        <g class="cls-26">
          <path class="cls-11" d="M90.96,38.92c.29.68.23.29.2,1.03-.76.29-1.02-1.03-.2-1.03h0Z"/>
        </g>
        <circle class="cls-16" cx="91.51" cy="39.34" r="1.11"/>
        <path class="cls-16" d="M91.6,43.2c.44,0,.44,2.27.88,2.27s.44-2.27.87-2.27.45,2.27.89,2.27.44-2.27.88-2.27"/>
        <circle class="cls-23" cx="90.32" cy="43.82" r="1.11"/>
        <path class="cls-9" d="M90.32,42.71c.61,0,1.11.49,1.12,1.11,0,.46-.28.86-.68,1.03.14-.19.23-.42.23-.68,0-.61-.5-1.11-1.12-1.11-.15,0-.3.03-.43.09.2-.27.52-.43.88-.44Z"/>
        <g class="cls-26">
          <path class="cls-11" d="M89.63,43.72c.28.22.39.26.44.31.04.06.07.17.25.49-.22.28-.59.25-.81,0-.21-.25-.2-.63.12-.8,0,0-.32.17,0,0Z"/>
        </g>
        <circle class="cls-16" cx="90.32" cy="43.82" r="1.11"/>
        <path class="cls-16" d="M92.33,47.11c.38-.22,1.52,1.74,1.9,1.52s-.76-2.18-.38-2.4,1.52,1.74,1.9,1.52-.76-2.18-.38-2.4"/>
        <circle class="cls-23" cx="91.53" cy="48.29" r="1.11"/>
        <path class="cls-9" d="M90.97,47.33c.53-.31,1.21-.13,1.52.4.23.4.19.88-.07,1.23.03-.23-.01-.48-.14-.7-.31-.53-.99-.71-1.52-.4-.13.08-.24.18-.33.29.04-.33.23-.64.54-.82Z"/>
        <g class="cls-26">
          <path class="cls-11" d="M90.89,48.55c.73.08.37-.06,1,.34-.12.81-1.4.37-1-.34h0Z"/>
        </g>
        <circle class="cls-16" cx="91.53" cy="48.29" r="1.11"/>
        <path class="cls-16" d="M94.92,50.14c.22-.38,2.19.75,2.4.37s-1.75-1.51-1.53-1.89,2.19.75,2.41.36-1.75-1.51-1.53-1.89"/>
        <circle class="cls-23" cx="94.81" cy="51.55" r="1.11"/>
        <path class="cls-9" d="M93.85,51c.31-.53.98-.72,1.52-.41.4.23.6.67.55,1.1-.09-.22-.25-.41-.47-.54-.53-.31-1.21-.12-1.52.41-.08.13-.12.28-.14.42-.13-.3-.12-.67.06-.98Z"/>
        <g class="cls-26">
          <path class="cls-11" d="M94.39,52.1c.67-.29.29-.23,1.03-.2.3.76-1.03,1.02-1.03.2h0Z"/>
        </g>
        <circle class="cls-16" cx="94.81" cy="51.55" r="1.11"/>
        <path class="cls-16" d="M98.67,51.46c0-.44,2.27-.45,2.26-.89s-2.27-.43-2.27-.87,2.27-.45,2.26-.89-2.27-.43-2.27-.87"/>
        <circle class="cls-23" cx="99.29" cy="52.73" r="1.11"/>
        <path class="cls-9" d="M98.18,52.74c0-.61.49-1.11,1.11-1.12.46,0,.86.28,1.03.68-.19-.14-.42-.23-.68-.23-.61,0-1.11.5-1.11,1.12,0,.15.03.3.09.43-.27-.2-.44-.52-.44-.88Z"/>
        <g class="cls-26">
          <path class="cls-11" d="M99.2,53.42c.22-.28.26-.39.31-.45.06-.04.17-.07.49-.25.28.22.25.59,0,.81-.25.21-.63.2-.8-.12,0,0,.17.32,0,0Z"/>
        </g>
        <circle class="cls-16" cx="99.29" cy="52.73" r="1.11"/>
        <path class="cls-16" d="M102.58,50.72c-.22-.38,1.74-1.52,1.52-1.9s-2.18.76-2.4.38,1.74-1.52,1.51-1.9-2.18.76-2.4.38"/>
        <circle class="cls-23" cx="103.76" cy="51.52" r="1.11"/>
        <path class="cls-9" d="M102.8,52.08c-.31-.53-.13-1.21.4-1.52.4-.23.88-.19,1.23.07-.23-.03-.48.01-.7.14-.53.31-.71.99-.4,1.52.08.13.18.24.29.33-.33-.04-.64-.23-.82-.54Z"/>
        <g class="cls-26">
          <path class="cls-11" d="M104.02,52.16c.08-.73-.06-.37.34-1,.81.12.37,1.4-.34,1h0Z"/>
        </g>
        <circle class="cls-16" cx="103.76" cy="51.52" r="1.11"/>
        <path class="cls-16" d="M105.6,48.13c-.38-.22.74-2.19.36-2.4s-1.51,1.75-1.89,1.53.74-2.19.36-2.41-1.51,1.75-1.89,1.53"/>
        <circle class="cls-23" cx="107.02" cy="48.23" r="1.11"/>
        <path class="cls-9" d="M106.47,49.19c-.53-.3-.72-.98-.42-1.52.23-.4.67-.61,1.1-.55-.22.09-.41.25-.54.47-.3.53-.12,1.21.42,1.52.13.08.28.12.42.14-.3.13-.67.12-.98-.06Z"/>
        <g class="cls-26">
          <path class="cls-11" d="M107.57,48.65c-.3-.67-.24-.29-.2-1.03.76-.3,1.03,1.03.2,1.03h0Z"/>
        </g>
        <circle class="cls-16" cx="107.02" cy="48.23" r="1.11"/>
        <path class="cls-16" d="M106.92,44.37c-.44,0-.45-2.27-.89-2.26s-.43,2.27-.87,2.27-.45-2.27-.89-2.26-.43,2.27-.87,2.27"/>
        <circle class="cls-23" cx="108.19" cy="43.75" r="1.11"/>
        <path class="cls-9" d="M108.2,44.86c-.61,0-1.12-.49-1.12-1.1,0-.46.28-.86.67-1.03-.14.19-.23.43-.23.68,0,.61.51,1.11,1.12,1.11.15,0,.3-.03.43-.09-.2.27-.52.44-.88.44Z"/>
        <g class="cls-26">
          <path class="cls-11" d="M108.88,43.84c-.28-.22-.39-.26-.45-.31-.04-.06-.07-.17-.25-.49.22-.28.59-.25.81,0,.21.25.2.63-.12.8,0,0,.32-.17,0,0Z"/>
        </g>
        <circle class="cls-16" cx="108.19" cy="43.75" r="1.11"/>
        <path class="cls-16" d="M106.17,40.46c-.38.22-1.52-1.73-1.9-1.51s.77,2.18.39,2.4-1.53-1.73-1.91-1.51.77,2.18.39,2.4"/>
        <circle class="cls-23" cx="106.97" cy="39.29" r="1.11"/>
        <path class="cls-9" d="M107.53,40.24c-.53.31-1.21.13-1.52-.4-.23-.4-.19-.88.07-1.23-.03.23.02.48.14.7.31.53.99.71,1.52.4.13-.08.24-.18.33-.29-.04.33-.23.64-.54.82Z"/>
        <g class="cls-26">
          <path class="cls-11" d="M107.61,39.02c-.73-.08-.37.06-1-.34.12-.81,1.4-.38,1,.34h0Z"/>
        </g>
        <circle class="cls-16" cx="106.97" cy="39.29" r="1.11"/>
        <path class="cls-16" d="M103.57,37.45c-.22.38-2.19-.74-2.41-.36s1.75,1.5,1.54,1.88-2.19-.74-2.41-.35,1.75,1.5,1.54,1.89"/>
        <circle class="cls-23" cx="103.67" cy="36.03" r="1.11"/>
        <path class="cls-9" d="M104.64,36.58c-.3.53-.98.72-1.52.42-.4-.23-.61-.67-.56-1.1.09.22.25.41.47.53.53.3,1.21.12,1.52-.42.08-.13.12-.28.14-.42.13.3.12.67-.06.98Z"/>
        <g class="cls-26">
          <path class="cls-11" d="M104.09,35.48c-.67.3-.29.24-1.03.21-.3-.76,1.03-1.03,1.03-.21h0Z"/>
        </g>
        <circle class="cls-16" cx="103.67" cy="36.03" r="1.11"/>
      </g>
      <g>
        <path class="cls-16" d="M64.77,9.2c0,.44-2.27.44-2.27.88s2.27.44,2.27.88-2.27.44-2.27.88,2.27.44,2.27.88"/>
        <circle class="cls-23" cx="64.16" cy="7.93" r="1.11"/>
        <path class="cls-9" d="M65.27,7.93c0,.61-.5,1.11-1.11,1.11-.46,0-.86-.28-1.03-.68.19.14.42.23.68.23.61,0,1.11-.5,1.11-1.11,0-.15-.03-.3-.09-.43.27.2.43.52.43.88Z"/>
        <g class="cls-26">
          <path class="cls-11" d="M64.26,7.24c-.22.28-.26.39-.31.44-.06.04-.17.07-.49.24-.28-.22-.25-.59,0-.81.25-.21.63-.2.8.12,0,0-.17-.32,0,0Z"/>
        </g>
        <circle class="cls-16" cx="64.16" cy="7.93" r="1.11"/>
        <path class="cls-16" d="M60.86,9.93c.22.38-1.74,1.52-1.52,1.9s2.18-.75,2.4-.37-1.74,1.52-1.52,1.9,2.18-.75,2.4-.37"/>
        <circle class="cls-23" cx="59.69" cy="9.13" r="1.11"/>
        <path class="cls-9" d="M60.65,8.57c.31.53.13,1.21-.4,1.52-.4.23-.88.19-1.23-.07.23.03.48-.01.7-.14.53-.31.71-.99.41-1.52-.08-.13-.18-.24-.29-.33.33.04.64.23.82.54Z"/>
        <g class="cls-26">
          <path class="cls-11" d="M59.43,8.48c-.08.73.06.37-.35,1-.81-.13-.37-1.4.35-1h0Z"/>
        </g>
        <circle class="cls-16" cx="59.69" cy="9.13" r="1.11"/>
        <path class="cls-16" d="M57.83,12.51c.38.22-.75,2.18-.37,2.4s1.51-1.75,1.89-1.53-.75,2.19-.37,2.41,1.51-1.75,1.9-1.53"/>
        <circle class="cls-23" cx="56.42" cy="12.4" r="1.11"/>
        <path class="cls-9" d="M56.97,11.44c.53.31.72.98.41,1.52-.23.4-.67.6-1.1.55.22-.09.41-.25.54-.47.31-.53.12-1.21-.41-1.52-.13-.08-.27-.12-.42-.14.31-.13.67-.12.98.06Z"/>
        <g class="cls-26">
          <path class="cls-11" d="M55.87,11.98c.29.68.23.29.2,1.03-.76.29-1.02-1.03-.2-1.03h0Z"/>
        </g>
        <circle class="cls-16" cx="56.42" cy="12.4" r="1.11"/>
        <path class="cls-16" d="M56.5,16.26c.44,0,.44,2.27.88,2.27s.44-2.27.87-2.27.45,2.27.89,2.27.44-2.27.88-2.27"/>
        <circle class="cls-23" cx="55.23" cy="16.88" r="1.11"/>
        <path class="cls-9" d="M55.23,15.77c.61,0,1.11.49,1.12,1.11,0,.46-.28.86-.68,1.03.14-.19.23-.42.23-.68,0-.61-.5-1.11-1.12-1.11-.15,0-.3.03-.43.09.2-.27.52-.43.88-.44Z"/>
        <g class="cls-26">
          <path class="cls-11" d="M54.54,16.78c.28.22.39.26.44.31.04.06.07.17.25.49-.22.28-.59.25-.81,0-.21-.25-.2-.63.12-.8,0,0-.32.17,0,0Z"/>
        </g>
        <circle class="cls-16" cx="55.23" cy="16.88" r="1.11"/>
        <path class="cls-16" d="M57.23,20.17c.38-.22,1.52,1.74,1.9,1.52s-.76-2.18-.38-2.4,1.52,1.74,1.9,1.52-.76-2.18-.38-2.4"/>
        <circle class="cls-23" cx="56.44" cy="21.35" r="1.11"/>
        <path class="cls-9" d="M55.88,20.39c.53-.31,1.21-.13,1.52.4.23.4.19.88-.07,1.23.03-.23-.01-.48-.14-.7-.31-.53-.99-.71-1.52-.4-.13.08-.24.18-.33.29.04-.33.23-.64.54-.82Z"/>
        <g class="cls-26">
          <path class="cls-11" d="M55.79,21.61c.73.08.37-.06,1,.34-.12.81-1.4.37-1-.34h0Z"/>
        </g>
        <circle class="cls-16" cx="56.44" cy="21.35" r="1.11"/>
        <path class="cls-16" d="M59.82,23.2c.22-.38,2.19.75,2.4.37s-1.75-1.51-1.53-1.89,2.19.75,2.41.36-1.75-1.51-1.53-1.89"/>
        <circle class="cls-23" cx="59.72" cy="24.61" r="1.11"/>
        <path class="cls-9" d="M58.75,24.06c.31-.53.98-.72,1.52-.41.4.23.6.67.55,1.1-.09-.22-.25-.41-.47-.54-.53-.31-1.21-.12-1.52.41-.08.13-.12.28-.14.42-.13-.3-.12-.67.06-.98Z"/>
        <g class="cls-26">
          <path class="cls-11" d="M59.29,25.16c.67-.29.29-.23,1.03-.2.3.76-1.03,1.02-1.03.2h0Z"/>
        </g>
        <circle class="cls-16" cx="59.72" cy="24.61" r="1.11"/>
        <path class="cls-16" d="M63.58,24.52c0-.44,2.27-.45,2.26-.89s-2.27-.43-2.27-.87,2.27-.45,2.26-.89-2.27-.43-2.27-.87"/>
        <circle class="cls-23" cx="64.19" cy="25.79" r="1.11"/>
        <path class="cls-9" d="M63.08,25.8c0-.61.49-1.11,1.11-1.12.46,0,.86.28,1.03.68-.19-.14-.42-.23-.68-.23-.61,0-1.11.5-1.11,1.12,0,.15.03.3.09.43-.27-.2-.44-.52-.44-.88Z"/>
        <g class="cls-26">
          <path class="cls-11" d="M64.1,26.48c.22-.28.26-.39.31-.45.06-.04.17-.07.49-.25.28.22.25.59,0,.81-.25.21-.63.2-.8-.12,0,0,.17.32,0,0Z"/>
        </g>
        <circle class="cls-16" cx="64.19" cy="25.79" r="1.11"/>
        <path class="cls-16" d="M67.49,23.78c-.22-.38,1.74-1.52,1.52-1.9s-2.18.76-2.4.38,1.74-1.52,1.51-1.9-2.18.76-2.4.38"/>
        <circle class="cls-23" cx="68.66" cy="24.58" r="1.11"/>
        <path class="cls-9" d="M67.7,25.14c-.31-.53-.13-1.21.4-1.52.4-.23.88-.19,1.23.07-.23-.03-.48.01-.7.14-.53.31-.71.99-.4,1.52.08.13.18.24.29.33-.33-.04-.64-.23-.82-.54Z"/>
        <g class="cls-26">
          <path class="cls-11" d="M68.93,25.22c.08-.73-.06-.37.34-1,.81.12.37,1.4-.34,1h0Z"/>
        </g>
        <circle class="cls-16" cx="68.66" cy="24.58" r="1.11"/>
        <path class="cls-16" d="M70.51,21.19c-.38-.22.74-2.19.36-2.4s-1.51,1.75-1.89,1.53.74-2.19.36-2.41-1.51,1.75-1.89,1.53"/>
        <circle class="cls-23" cx="71.92" cy="21.29" r="1.11"/>
        <path class="cls-9" d="M71.37,22.25c-.53-.3-.72-.98-.42-1.52.23-.4.67-.61,1.1-.55-.22.09-.41.25-.54.47-.3.53-.12,1.21.42,1.52.13.08.28.12.42.14-.3.13-.67.12-.98-.06Z"/>
        <g class="cls-26">
          <path class="cls-11" d="M72.47,21.71c-.3-.67-.24-.29-.2-1.03.76-.3,1.03,1.03.2,1.03h0Z"/>
        </g>
        <circle class="cls-16" cx="71.92" cy="21.29" r="1.11"/>
        <path class="cls-16" d="M71.82,17.43c-.44,0-.45-2.27-.89-2.26s-.43,2.27-.87,2.27-.45-2.27-.89-2.26-.43,2.27-.87,2.27"/>
        <circle class="cls-23" cx="73.1" cy="16.81" r="1.11"/>
        <path class="cls-9" d="M73.1,17.92c-.61,0-1.12-.49-1.12-1.1,0-.46.28-.86.67-1.03-.14.19-.23.43-.23.68,0,.61.51,1.11,1.12,1.11.15,0,.3-.03.43-.09-.2.27-.52.44-.88.44Z"/>
        <g class="cls-26">
          <path class="cls-11" d="M73.78,16.9c-.28-.22-.39-.26-.45-.31-.04-.06-.07-.17-.25-.49.22-.28.59-.25.81,0,.21.25.2.63-.12.8,0,0,.32-.17,0,0Z"/>
        </g>
        <circle class="cls-16" cx="73.1" cy="16.81" r="1.11"/>
        <path class="cls-16" d="M71.08,13.52c-.38.22-1.52-1.73-1.9-1.51s.77,2.18.39,2.4-1.53-1.73-1.91-1.51.77,2.18.39,2.4"/>
        <circle class="cls-23" cx="71.87" cy="12.34" r="1.11"/>
        <path class="cls-9" d="M72.43,13.3c-.53.31-1.21.13-1.52-.4-.23-.4-.19-.88.07-1.23-.03.23.02.48.14.7.31.53.99.71,1.52.4.13-.08.24-.18.33-.29-.04.33-.23.64-.54.82Z"/>
        <g class="cls-26">
          <path class="cls-11" d="M72.51,12.08c-.73-.08-.37.06-1-.34.12-.81,1.4-.38,1,.34h0Z"/>
        </g>
        <circle class="cls-16" cx="71.87" cy="12.34" r="1.11"/>
        <path class="cls-16" d="M68.48,10.51c-.22.38-2.19-.74-2.41-.36s1.75,1.5,1.54,1.88-2.19-.74-2.41-.35,1.75,1.5,1.54,1.89"/>
        <circle class="cls-23" cx="68.57" cy="9.09" r="1.11"/>
        <path class="cls-9" d="M69.54,9.64c-.3.53-.98.72-1.52.42-.4-.23-.61-.67-.56-1.1.09.22.25.41.47.53.53.3,1.21.12,1.52-.42.08-.13.12-.28.14-.42.13.3.12.67-.06.98Z"/>
        <g class="cls-26">
          <path class="cls-11" d="M69,8.54c-.67.3-.29.24-1.03.21-.3-.76,1.03-1.03,1.03-.21h0Z"/>
        </g>
        <circle class="cls-16" cx="68.57" cy="9.09" r="1.11"/>
      </g>
    </g>
    <g id="Water-over-silica">
      <circle class="cls-10" cx="198.69" cy="15.45" r="13.13"/>
      <circle class="cls-10" cx="231.06" cy="45.67" r="9.51"/>
      <circle class="cls-10" cx="271.78" cy="11.48" r="8.34"/>
    </g>
    <g id="Arrows_and_Labels">
      <g>
        <line class="cls-18" x1="235.4" y1="32.64" x2="228.38" y2="32.21"/>
        <polygon class="cls-22" points="229.43 29.27 224.08 31.94 229.07 35.25 229.43 29.27"/>
      </g>
      <g>
        <line class="cls-18" x1="253.04" y1="14.17" x2="252.37" y2="21.18"/>
        <polygon class="cls-22" points="249.48 20.02 251.96 25.46 255.43 20.59 249.48 20.02"/>
      </g>
      <line class="cls-13" x1="219.7" y1="17.52" x2="218.8" y2="24.62"/>
      <line class="cls-13" x1="261.14" y1="27.53" x2="256.33" y2="32.27"/>
      <line class="cls-13" x1="253.07" y1="38" x2="252.5" y2="44.7"/>
      <line class="cls-13" x1="275.14" y1="25.82" x2="267.96" y2="26.17"/>
      <line class="cls-13" x1="217.1" y1="31.77" x2="216.36" y2="37.57"/>
      <line class="cls-13" x1="214.02" y1="43.12" x2="215.42" y2="47.88"/>
      <text class="cls-6" transform="translate(44.4 33.01)"><tspan x="0" y="0">Silica</tspan></text>
      <text class="cls-6" transform="translate(35.13 53.66)"><tspan x="0" y="0">Proton</tspan></text>
      <text class="cls-6" transform="translate(91.03 24.22)"><tspan x="0" y="0">Fluorinated</tspan><tspan x="1.39" y="6">Backbone</tspan></text>
      <text class="cls-6" transform="translate(70.37 33.36)"><tspan x="0" y="0">Sulfonic</tspan><tspan x="4.03" y="6">Acid</tspan><tspan x="2.36" y="12">Chain</tspan></text>
      <g>
        <line class="cls-16" x1="44.24" y1="29.18" x2="37.12" y2="23.5"/>
        <path class="cls-5" d="M37.5,23.08c-.24-.19-.6-.15-.79.09s-.15.6.09.79c.24.19.6.15.79-.09.19-.24.15-.6-.09-.79Z"/>
      </g>
      <g>
        <line class="cls-16" x1="34.58" y1="50.92" x2="24.23" y2="44.15"/>
        <circle class="cls-5" cx="24.26" cy="44.17" r=".56"/>
      </g>
      <g>
        <line class="cls-16" x1="74.39" y1="28.7" x2="63.94" y2="13.17"/>
        <path class="cls-5" d="M64.42,12.88c-.17-.26-.52-.33-.78-.15-.26.17-.33.52-.15.78.17.26.52.33.78.15.26-.17.33-.52.15-.78Z"/>
      </g>
      <g>
        <line class="cls-16" x1="105.85" y1="31.23" x2="106.75" y2="37.23"/>
        <path class="cls-5" d="M106.19,37.28c.05.31.33.52.64.47.31-.05.52-.33.47-.64-.05-.31-.33-.52-.64-.47-.31.05-.52.33-.47.64Z"/>
      </g>
      <g>
        <line class="cls-17" x1="122.61" y1="26.47" x2="163.54" y2="26.47"/>
        <polygon class="cls-24" points="174.13 26.47 159.2 32.57 162.75 26.47 159.2 20.38 174.13 26.47"/>
      </g>
      <text class="cls-4" transform="translate(129.53 17.99)"><tspan x="0" y="0">Humidification</tspan></text>
      <text class="cls-4" transform="translate(126.73 39.33)"><tspan x="0" y="0">Water Uptake by </tspan><tspan x="-2.17" y="7.2">Silica and Sulfonic </tspan><tspan x="17.34" y="14.4">Acid</tspan></text>
      <text class="cls-6" transform="translate(292.02 32.22)"><tspan x="0" y="0">Liquid</tspan><tspan x="0" y="6">Water</tspan></text>
      <text class="cls-6" transform="translate(292.97 6.06)"><tspan x="0" y="0">Proton</tspan><tspan x="-1.95" y="6">Hopping</tspan></text>
      <g>
        <line class="cls-16" x1="290.92" y1="29.45" x2="282.78" y2="24.47"/>
        <path class="cls-5" d="M283.1,24.01c-.27-.16-.61-.08-.78.19-.16.27-.08.61.19.78.27.16.61.08.78-.19.16-.27.08-.61-.19-.78Z"/>
      </g>
      <g>
        <line class="cls-16" x1="289.81" y1="7.83" x2="272.7" y2="24.68"/>
        <path class="cls-5" d="M272.32,24.26c-.22.22-.22.58,0,.8.22.22.58.22.8,0,.22-.22.22-.58,0-.8-.22-.22-.58-.22-.8,0Z"/>
      </g>
    </g>
  </g>
</svg>